<?xml version="1.0" encoding="UTF-8"?>
<svg id="_レイヤー_2" data-name="レイヤー 2" xmlns="http://www.w3.org/2000/svg" viewBox="0 0 395.88 393.85">
  <defs>
    <style>
      .cls-1 {
        stroke-width: 0px;
      }
    </style>
  </defs>
  <path class="cls-1" d="M236.07,330.58c.22.11.45.21.66.34.5.31.76,1.25.51,1.83-.06.15-.21.29-.2.44.05.85-.31,1.42-1.06,1.8-.36.18-.66.51-1.03.68-.89.43-1.78.9-2.71,1.19-.81.25-1.53.61-2.24,1.05-.18.11-.35.78-.21.92.9.93,1.33,2.29,2.6,2.9.26.12.34.31.28.57-.03.16-.1.32-.08.47.08.65.19,1.3.29,1.95,0,0,.02.08.02.08l-.07-.11c.32.14.62.1.95,0,.55-.16,1.11-.26,1.67-.39,0,0-.02-.05-.02-.05-.17.52-.85.51-1.05.98-.06.14-.14.32-.1.43.04.1.29.22.38.18.99-.46,2.03-.67,3.11-.73.15,0,.36-.09.43-.21.36-.58.93-.61,1.52-.66.72-.07,1.23-.42,1.44-1.16.09-.31.28-.6.42-.89l-.03.04c.29-.43.57-.86.85-1.28-.28-.11-.61-.34-1.05-.15-.44.19-.92.29-1.38.44l.05.05c.14-.63.53-1.26.28-1.9-.14-.35-.3-.58.13-.74.55-.2,1.09-.41,1.58-.73.25-.16.66.09.77.44.05.16.03.34.07.49.19.64.56.9,1.08.65.85-.4,1.71-.68,2.67-.5.11.02.28-.15.37-.26.15-.2.28-.42.59-.32.08.02.18.05.25.02.3-.14.72-.22.85-.46.52-.98,1.36-1.67,2.03-2.5.32-.4.62-.74.49-1.33-.1-.44.29-.78.53-1.08.57-.72,1.22-1.37,1.84-2.05.58-.63.58-.67.19-1.53-.1-.22-.27-.48-.22-.68.17-.72-.2-1.08-.76-1.35-.06-.42-.23-.75-.67-.9-.16-.05-.14-.27.05-.36.45-.2.93-.35,1.39-.54.14-.06.25-.22.38-.34.21-.74.05-1.5-.12-2.21-.15-.62-.63-1.16-.94-1.7.24-.52.49-.96.63-1.43.17-.55-.41-1.23-.97-1.21-.25.01-.5.02-.75.07-.33.06-.65.16-.98.24-.32.08-.64.17-.96.25-.26-.53-.33-.85-.33-1.67-.39-.09-.79-.19-1.19-.28-.08-.66.58-.7.88-1.04-.38-.52-.34-1.09-.14-1.65.14-.39.42-.72.6-1.1.22-.45.4-.91.28-1.44-.1-.42.05-.83.32-1.17.38-.48.29-.94-.07-1.36-.41-.5-.49-1.02-.31-1.64.17-.59,0-1.14-.31-1.68-.46-.8-.87-1.62-1.71-2.11-.28-.16-.48-.47-.74-.68-.49-.4-.73-.9-.77-1.52-.02-.25-.07-.49-.11-.71-.5-.23-.81.11-1.17.29-.36.19-.67.52-1.14.33l.06.02c.11-.85.43-1.61.87-2.33.17-.29.34-.58.46-.89,1.47-3.79,2.34-7.69,2.14-11.78-.04-.75-.11-1.5-.24-2.24-.07-.4-.24-.83-.49-1.15-.68-.84-1.34-1.74-2.17-2.41-.74-.6-1.35-1.23-1.68-2.12-.36-.97-.97-1.7-1.82-2.33-1.2-.9-2.29-1.96-3.41-2.96-.25-.22-.46-.49-.68-.74-.84-.94-1.6-1.94-2.69-2.62-.21-.13-.42-.31-.55-.51-.76-1.19-1.78-2.2-2.41-3.48-.7-1.43-1.49-2.82-2.11-4.28-.62-1.46-1.09-2.99-1.61-4.49-.14-.4-.18-.82-.33-1.21q-1.44-3.71-1.84-7.49c-.04-.33-.02-.69-.15-.99-.79-1.87-.67-3.97-1.43-5.85.1-1.87-.88-3.58-.78-5.44-.48-1.8-.35-3.66-.66-5.48-.14-.83-.15-1.69-.4-2.48-.67-2.17-1.04-4.41-1.42-6.63-.32-1.88-.54-3.82-.09-5.73.12-.52.08-.99-.13-1.47-.2-.48-.24-1-.09-1.48.23-.75.24-1.48.07-2.23-.33-1.49-.25-3.01-.17-4.52.05-.92.15-1.84.27-2.75.06-.41.18-.83.36-1.2.26-.55.62-.97,1.36-.82.39.08.98-.31.99-.56.08-1.16.34-2.32,0-3.48-.03-.11-.23-.2-.37-.26-.05-.02-.18.03-.23.09-.16.19-.29.4-.44.58-.05.05-.18.09-.23.06-.13-.08-.25-.19-.35-.31-.05-.06-.07-.16-.07-.24.04-1.6-.07-3.18-.45-4.74-.12-.51.05-.97.45-1.36.36-.35.65-.76.93-1.09.51,0,.84.01,1.17,0,.28-.02.52-.26.47-.46-.14-.56-.37-1.08-.38-1.7-.01-.68-.57-1.17-1.11-1.58.26-.41.59-.8.54-1.31-.02-.2-.17-.42-.31-.58-.15-.17-.37.08-.34.43.03.48.09.96.13,1.44.02.08.08.19.05.24-.25.37-.58.58-1.1.41.14-1.24.28-2.47.42-3.71.17-1.5.58-2.93,1.27-4.27.07-.14.21-.24.35-.4.49.14.97.29,1.45.43.4-.16.7-.44.87-.84.33-.77.68-1.53.98-2.3.13-.33.36-.54.61-.76.18-.15.39-.41.38-.61-.07-1.11.2-2.16.52-3.21.1-.34-.06-.65-.24-.94-.14-.24-.55-.33-.61-.11-.19.61-.91.8-1.09,1.32-.25.71-.82.76-1.36.92-.32.09-.73-.15-.81-.45-.16-.64-.19-1.32-.68-1.86-.14-.15-.17-.48-.13-.72.14-.91.33-1.81.5-2.72.16-.91.32-1.81.46-2.72.05-.32.09-.67.01-.98-.28-1.18-.16-2.35.04-3.5.23-1.33.31-2.66.38-4,.05-.92.1-1.87.36-2.74.27-.9.39-1.79.38-2.7,0-.8.14-1.46.84-1.98.35-.26.37-.74.09-1.14-.19-.27-.41-.5-.41-.88.01-1.27.4-2.47.63-3.69.02-.13.22-.28.36-.31.24-.05.49,0,.74-.01.73-.03,1.01-.21,1.07-.79.15-1.33.52-2.63.46-3.99-.02-.49.11-1,.28-1.46.25-.72.48-1.43.48-2.2,0-.12-.16-.32-.26-.33-.12,0-.33.12-.37.24-.21.63-.48,1.27-.54,1.92-.11,1.17-.12,2.33-.56,3.45-.14.36-.08.8-.12,1.34-.42-.27-.75-.46-1.04-.68-.42-.32-.46-.77,0-.99.52-.25.76-.63.89-1.13.18-.66.34-1.4-.02-1.97-.43-.67-.28-1.28-.14-1.92.14-.65.37-1.29.53-1.94.08-.32.22-.68.15-.98-.34-1.47.17-2.82.46-4.21.38-1.8.8-3.6,1.21-5.4.07-.33.15-.65.23-.98.22-.86,1.21-1.48.79-2.54.19-.9.38-1.8.57-2.7.1-.5.14-1-.03-1.49-.11-.32-.23-.64-.59-.76-2.15-.75-4.31-1.38-6.68-1.06-.58-.21-.86-.95-1.54-1.11-.3.14-.6.28-.9.41l.04.05c-.23-.26-.52-.47-.87-.34-.47.17-.95.36-1.37.62-.35.23-.66.52-1.12.46-.7-.09-1.27-.43-1.67-1.01-.08-.12-.13-.36-.06-.46.24-.34.54-.63.8-.95.18-.22.12-.29-.28-.39-.4-.1-.54-.32-.44-.67.1-.37.34-.54.7-.63.26-.06.46-.25.41-.53-.08-.45-.03-.82.39-1.09.6-.39.92-1.01,1.08-1.65.3-1.15.97-1.92,1.99-2.46.19-.1.31-.38.39-.6.04-.12-.02-.34-.12-.45-.09-.1-.33-.19-.42-.14-.36.2-.68.48-1.04.69-.6.34-1.16.12-1.4-.51-.25-.65-.45-1.29.17-1.86.22-.2.17-.45.18-.69,0-.17.03-.33.07-.5.12-.52.33-.95.95-1.01.16-.01.33-.08.47-.16.43-.24.63-.78.47-1.3-.07-.21-.19-.41-.28-.61.33-.18.64-.33.92-.52.13-.09.33-.27.31-.36-.19-.74.46-1.43.1-2.18-.11-.22-.11-.58.17-.64.8-.18,1.13-.96,1.83-1.29-.11-.39-.22-.78-.33-1.15.42-.64,1.14-.73,1.73-1.02.74-.36,1.19-.9,1.3-1.72.05-.41.12-.82.19-1.28-.3-.27-.62-.53-.91-.83-.25-.26-.14-.95.2-1.1.37-.17.78-.38,1.17-.38,1.19,0,2.33-.3,3.48-.52.49-.09.95-.31,1.41-.52.08-.04.1-.27.11-.41,0-.06-.1-.17-.16-.18-.58-.03-1.16-.03-1.74-.07-.31-.02-.63-.38-.66-.67-.03-.31.22-.73.5-.8.4-.11.81-.19,1.22-.27.65-.13,1.36-.15,1.95-.42,1.18-.52,2.37-.8,3.66-.79.66,0,1.06-.39,1.19-1.07.2-1.07.38-2.14.56-3.21.03-.16,0-.35.06-.5.7-1.48.62-3.11.91-4.67.09-.5.13-.99.36-1.45.14-.29.23-.64.24-.97.05-1.79.71-3.44,1.17-5.13.28-1.05.58-2.1.91-3.14.15-.47.34-.96.64-1.35.33-.43.48-.81.4-1.36-.06-.39.09-.82.2-1.22.48-1.61,1.21-3.12,2.01-4.59.16-.29.45-.62.41-.89-.16-1.02.45-1.76.82-2.58.88-1.98,1.57-4.06,2.82-5.87.05-.07.07-.15.11-.23.25-.53.54-1.05.73-1.6.77-2.21,1.86-4.29,2.49-6.56.42-1.5.59-2.95.14-4.46-.12-.4-.25-.81-.27-1.23-.06-1.11-.32-2.15-.86-3.12-.08-.14-.08-.32-.12-.49-.11-.44.15-1.06.59-1.28.29-.15.62-.28.95-.3,1.03-.08,2.05.21,2.91.68.86.47,1.67,1.13,2.25,1.98.34.48.66.97,1.01,1.45.4.54.77,1.11,1.24,1.59.78.8,1.33,1.72,1.62,2.8.07.24.07.53.21.72.67.91.81,2,1.11,3.11-.13.32-.28.71-.45,1.09-.28.64-.38,1.3-.15,1.96.32.89-.17,1.44-.8,1.91-.35.26-.79.33-1.2.16-1.02-.42-1.98-.93-2.57-1.92-.21-.36-.45-.71-.7-1.04-.27-.35-.66-.51-1.08-.59-.14-.02-.3.07-.44.14-.07.03-.13.11-.17.18-.79,1.76-1.58,3.52-2.37,5.27-.35.78-.48,1.6-.57,2.44-.12,1.08-.35,2.13-.69,3.18-.28.87-.52,1.8-.53,2.7-.03,1.38-.41,2.64-.92,3.88-.13.32-.27.65-.1.96.34.59.2,1.12-.09,1.67-.61,1.19-1.06,2.45-1.76,3.6-.69,1.13-1.3,2.34-1.35,3.73-.02.75-.61,1.39-.5,2.18,0,.06.08.14.13.15.07.01.18,0,.23-.06.55-.65.84-1.44,1.17-2.21.19-.45.43-.91.93-1.13.07-.03.17-.03.25,0,.06.02.12.1.13.17.03.16.08.34.03.49-.28.9-.34,1.8-.28,2.74.06.8-.31,1.47-.89,1.98-.22.19-.69.12-.84.46-.35.75-.69,1.52-.94,2.3-.09.28.09.64.15.93-.31.34-.58.66-.88.95-.18.17-.39.3-.68.18-.12-.05-.41,0-.42.04-.09.68-.56,1.2-.77,1.82-.07.2,0,.51.12.71.29.49.28.95-.01,1.41-.04.07-.09.15-.15.2-.63.63-.59,1.34-.25,2.08,0,0-.03-.05-.03-.05.55.22,1.05.31,1.66-.01,1.42-.76,2.6-1.83,3.8-2.86.68-.58,1.22-1.39,1.43-2.31.17-.75.48-1.4.89-2.05.74-1.2,1.5-2.41,1.82-3.83.13-.55.46-1.07.77-1.56.35-.56.88-1.02,1.16-1.61.24-.51.2-1.14.33-1.71.08-.33.31-.58.66-.7.5-.16.85-.51,1.13-.94.94-1.48,1.9-2.96,2.5-4.62l-.05.04c.05-.06.15-.13.14-.18-.02-.14-.09-.26-.14-.39l.05.04c.44-.62,1.31-.74,1.7-1.45.32-.58.77-1.1,1.15-1.64.27-.38.63-.57,1.07-.41.65.23,1.13,0,1.57-.46,1.17-1.22,2.06-2.66,2.83-4.13.88-1.7,1.53-3.53,2.27-5.3.13-.31.26-.67.05-.96-.46-.65-.26-1.27,0-1.9.2-.47.03-.75-.37-1.03-.16-.11-.29-.44-.26-.64.13-.99.4-1.97.45-2.96.05-.91-.17-1.83-.05-2.75.03-.25.02-.5.04-.75.05-.89-.17-1.65-.96-2.18-.58-.39-.9-.97-1.13-1.61-.56-1.57-1.16-3.13-1.69-4.72-.15-.46-.16-.99-.15-1.49.03-1.09.05-2.17-.4-3.2-.08-.19,0-.49.07-.72.11-.31.31-.59.43-.9.12-.34-.02-.66-.18-.95-.04-.07-.11-.14-.18-.18-1.35-.76-1.36-1.81-.96-3.19.47-1.62,1.35-2.85,2.58-3.91.23-.2.49-.19.9.05.63.37.84.33,1.11-.24.1-.22.13-.48.19-.72h-.04c.19-.17.37-.36.56-.54v.03c.77-.69,1.05-1.69,1.57-2.54.06-.11.28-.19.4-.17.13.02.31.17.35.29.16.58.33,1.1.98,1.34.52.2.71.69.72,1.22.02.67.04,1.34-.01,2.01-.13,1.59-.15,3.17-.02,4.75.05.6-.04,1.16-.32,1.7-.23.44-.36.94-.54,1.41-.38,1-.08,1.93.66,2.52,1.44,1.16,2.51,2.68,3.9,3.88.51.44.92.96,1.34,1.48.56.69,1.02,1.34.68,2.26.21.92.12,1.81-.2,2.69-.11.29-.12.67-.03.98.23.8-.34,1.47-.29,2.22.05.75.15,1.5-.01,2.24-.11.49-.31.95-.47,1.43-.4,1.19-.82,2.37-.44,3.68.1.36-.06.83-.2,1.21-.17.47-.46.89-.67,1.35-.06.14-.1.39-.02.47.69.69.27,1.39.04,2.08-.19.55-.38,1.11-.56,1.67-.08.24-.22.49-.2.72.14,1.91-.61,3.6-1.26,5.32-.13.33-.14.64-.03.97.1.34.06.67-.12.96-.82,1.36-1.36,2.88-2.47,4.07-1,1.08-1.45,2.43-1.62,3.84.45,1.1.91,2.17,1.31,3.27.14.38.11.82.16,1.24.02.2.16.33.34.24.12-.06.25-.26.25-.39,0-.33-.12-.65-.13-.98-.02-.46.21-.81.61-1.01.39-.2.81-.18,1.2.06,1.14.72,1.42,1.56.93,2.75-.22.54-.49,1.06-.67,1.62-.09.3-.15.72-.01.97.49.87.35,1.77.3,2.68,0,.05.09.13.15.16.07.03.2.05.22.01.24-.34.45-.69.69-1.04.04-.06.17-.13.21-.11.13.07.35.18.35.28.06,1,.07,2,.11,3.01.02.58-.01,1.17.24,1.73.11.25.37.52.51.44.14-.08.32-.14.4-.27.28-.42.49-.88.79-1.28.19-.26.44-.54.72-.66.46-.19.58-.55.71-.95.1-.32.23-.58.62-.7.35-.11.48-.53.41-.84-.24-1.01-.1-2,.12-2.98.04-.17.24-.1.38.03.49.44.89.35,1.02-.22.06-.24.06-.5.08-.75.02-.22.12-.32.3-.26.06.02.11.11.14.18.36.66.64.7.96.13.2-.36.38-.74.51-1.13.15-.47.24-.97.36-1.45.05-.2,0-.37-.18-.41-.14-.04-.32,0-.46.05-.15.06-.25.22-.4.3-.35.18-.73.02-.76-.32-.07-.75-.12-1.49-.17-2.19.59-.57,1.31-.42,1.92-.63.29-.1.71.17.8.46.12.4.31.8.32,1.2.03,1,.13,2-.26,2.98-.28.71-.11,1.49-.18,2.24l.05-.06c-.32.19-.4.52-.46.85-.12.67-.24,1.32-.94,1.66-.07.03-.14.12-.16.19-.13.56-.24,1.1-.65,1.58-.37.43-.55,1.02-.81,1.51-.44.16-.93.2-1.18.46-.32.35-.48.87-.64,1.33-.14.41-.07.85.16,1.21.31.49.68.95,1.06,1.39.08.1.34.16.45.1.52-.26,1.02-.57,1.53-.85.39-.21.82-.18,1.23-.07.22.06.5.24.57.43.2.55.31,1.13.45,1.7.05.2.16.32.34.27.15-.04.3-.13.4-.24.1-.12.12-.31.2-.46.22-.39.53-.53.79-.36.29.18.59.43.47.78-.2.6-.24,1.14.15,1.67.4.54.32,1.11.06,1.66-.18.38-.4.74-.6,1.11-.58.31-1.18.6-1.75.94-.3.18-.59.28-.93.31-.62.05-1.08.45-1.49.86-.53.53-.95,1.22-1.56,1.62-.64.42-.8,1.02-1.06,1.63-.25.04-.49.09-.74.13-.35.07-.68.26-.74.59-.14.78-.54,1.39-1.05,1.97-.26.29-.52.27-.88.21-.41-.07-.72.19-.69.53.08.83-.14,1.49-.91,1.9-1.48,1.78-3.58,2.73-5.43,4.03-.27.19-.61.29-.93.35-.44.09-.7.36-1.03.63-.91.74-1.91,1.36-3.14,1.36-.53,0-.98.2-1.43.41-.53.25-.97.05-1.42-.19-.26-.14-.39-.45-.25-.62.1-.11.22-.24.35-.28.15-.05.33,0,.5-.02.89-.1,1.24-.37,1.45-1.11.11-.4.21-.8.34-1.19.12-.37.33-.53.49-.39.11.1.21.24.25.39.05.18.14.31.33.29.05,0,.12-.13.13-.21.05-.41.01-.84.61-.91.44-.05.75-.32.89-.77.17-.55.34-1.11.51-1.66.07-.02.16-.01.22-.05.03-.02.02-.16.01-.16-.18-.04-.24.05-.18.26-.46.07-.91.14-1.42.21-.05-.65-.1-1.21-.15-1.77.07-.01.15-.01.21-.05.03-.02.03-.15.03-.15-.16-.05-.23.04-.19.24-.48-.07-.7.29-.97.59-.33.37-.52.4-.53.15,0-.22.02-.5.15-.64.32-.34.8-.56.78-1.14.28-.11.41-.35.48-.63.06-.02.12-.04.18-.07-.05.04-.09.08-.14.12-.16.2-.33.4-.49.6-.28-.17-.55-.42-.86-.49-.42-.11-.8.13-1.16.36-.07.05-.15.08-.21.14-.71.71-1.46,1.38-2.1,2.15-.42.51-.68,1.13-.31,1.85.13.26.13.68.02.96-.49,1.15-.97,2.29-.91,3.59.02.39-.5.69-.33,1.14.05.13.23.22.37.29.05.03.2-.01.22-.06.1-.22.16-.46.26-.68.13-.31.29-.36.53-.12.17.18.32.37.47.55-.05.17-.05.37-.14.47-.45.49-.95.94-1.4,1.43-.17.18-.32.42-.36.65-.08.47.53.84.19,1.39-.22.34-.36.74-.48,1.13-.02.08.17.24.29.34.03.03.15-.01.21-.05.07-.04.12-.11.16-.18.1-.2.23-.25.38-.13.05.04.1.15.09.21-.3,1.04-.61,2.07-.92,3.11v-.05c-.14.1-.27.21-.41.29-.32.17-.5.07-.48-.25.02-.32.05-.63.08-.99-.71.38-1.36.72-1.72,1.43-.16.3-.38.18-.61.05-.26-.13-.47.03-.64.21-.48.51-.72,1.13-.7,1.83.01.44-.06.83-.33,1.17-.61.75-.71,1.68-.97,2.56.22.76-.13,1.27-.7,1.71-.11.08-.11.3-.15.47-.02.07,0,.21.04.23.13.07.3.16.43.13.51-.11.93-.37,1.13-.89.12-.32.32-.67.67-.67.54,0,.91-.11,1.22-.62.43-.72,1-1.35.93-2.27-.02-.24-.27-.41-.51-.27-.14.08-.25.25-.4.3-.12.04-.28-.01-.41-.07-.05-.02-.09-.16-.08-.23.2-1.27.76-1.88,1.86-2.03.41-.05.83-.09,1.25-.07.1,0,.24.21.28.34.04.15,0,.34-.06.48-.33.67-.83,1.29-1,2-.29,1.21-.39,2.48-.56,3.72-.04.33,0,.67-.04,1-.03.24-.1.51-.24.69-.46.61-.44,1.27-.21,1.91.28.78.18,1.53-.23,2.17-.38.59-.74,1.1-.41,1.83.06.13.04.37-.05.48-.66.93-.72,2.04-.94,3.09-.28,1.31-.55,2.61-1,3.88-.36,1.01-.43,2.12-.88,3.12-.09.2-.05.5.02.73.28.83.1,1.68.04,2.49-.11,1.33-.48,2.63-.69,3.95-.12.74-.51,1.21-1.2,1.46-.08.03-.16.07-.24.09-.61.14-.75.65-.79,1.14-.05.58,0,1.17.03,1.75.03.54.21.62.82.37.56-.23.81-.1.81.42,0,.17.01.33.01.5,0,.08,0,.17-.02.25-.54,1.42-.6,2.94-.84,4.42-.26,1.56-.59,3.11-.67,4.71-.03.65-.37,1.27-.55,1.91-.12.4-.22.8-.31,1.21-.04.22.1.25.29.29.5.1.62.24.6.56-.02.26-.12.51-.42.52-.59.02-.99.3-1.04.87-.08.73-.46,1.4-.24,2.2.18.64-.04,1.3-.42,1.9-.26.41-.38.92-.38,1.44,0,.56.16.84.74,1.13.22.11.43.24.63.38.19.14.22.5.1.67-.29.43-.69.77-1.17.91-.73.21-1.1.69-1.35,1.35-.23.63-.49,1.25-.73,1.87-.21.56,0,.97.48,1.27.07.04.13.1.2.15l-.04-.05c.08.48.08.94.59,1.29.61.42.55.54,0,1.17-.16.18-.34.36-.42.58-.14.39-.21.8-.32,1.2-.17.66.02,1.24.76,1.61.47.23.61.78,1.15.91.33.08.46.45.41.82-.04.33-.11.66-.11.99,0,.56-.28.9-.69,1.25-.39.32-.38.85-.01,1.07.5.3.77.6.48,1.19-.11.22-.2.47-.23.71-.16,1.42-.42,2.8-.9,4.16-.24.68-.16,1.49-.22,2.23,0,0-.01.08-.01.08l.05-.11c.24,0,.56-.07.71.05.15.12.14.45.19.69.02.08,0,.17-.02.25-.16.38-.38.73-.49,1.12-.1.4-.07.83-.14,1.24-.06.33-.22.64-.24.97-.02.23.06.54.21.69.49.45.56.94.44,1.58-.31,1.67-.24,3.33.17,4.99.2.81.25,1.66.43,2.47.38,1.8.83,3.59,1.2,5.4.44,2.13,1.15,4.21,1.42,6.38.01.08,0,.17.05.25.83,1.6,1.15,3.32,1.2,5.1,0,.16.05.34.12.49.52,1.05,1.01,2.12,1.6,3.13.24.41.7.7,1.07,1.04.31.28.7.49.92.82,1.24,1.89,2.64,3.67,3.7,5.67.55,1.03.97,2.13,1.42,3.21.19.47.34.95.75,1.28.61.49.92,1.18,1.28,1.84,1.21,2.19,2.23,4.49,3.57,6.62.48.77.76,1.67,1.15,2.51.14.3.33.57.5.85,0,0,.02-.04.02-.04.56.62,1.04,1.33,1.69,1.82.71.53,1.27,1.07,1.45,1.96.03.16.1.34.22.45,1.23,1.09,1.73,2.65,2.59,3.98.52.8.88,1.6,1.98,1.68.11,0,.25.4.27.63.04.42.27.63.64.58.53-.08.79.19.96.59.13.3.22.63.28.96.1.5.31.91.62,1.34.48.67.95,1.42,1.15,2.2.34,1.38,1.1,2.63,1.25,4.07.04.4.21.82.42,1.17.41.67.59,1.38.61,2.15,0,.25,0,.51.06.75.55,1.96.02,4,.46,5.96-.28,2.06-.11,4.19-1.14,6.12-.27.5-.29,1.13-.41,1.7-.16.74-.32,1.47-.45,2.22-.06.34,0,.71.37.84.51.18.6.56.52.98-.14.65-.31,1.3-.54,1.93-.17.48-.48.93-1,1.06-1.01.25-1.51,1.01-1.95,1.83-.2.36-.36.76-.45,1.17-.45,1.89-1.4,3.59-2.04,5.41-.08.23-.23.45-.36.66-1.51,2.43-2.64,5.05-3.75,7.68-.26.61-.48,1.25-.64,1.9-.38,1.54-.68,3.09-.69,4.68,0,.24.09.49.18.72.05.15.17.28.28.46.3-.03.65.02.93-.1,1.19-.51,2.24-.38,3.25.44.48.38,1.04.46,1.66.21.54-.21,1.11-.32,1.68-.45.24-.06.51-.13.74-.07,1.29.34,2.65.24,3.92.8,1.62.7,3.35,1.09,5.09,1.38,2.16.36,4.26.84,6.28,1.72,1.31.57,2.69.96,4.15.91.43-.01.81.15,1.21.3.29.11.66.15.97.09,1.14-.24,2.28-.38,3.44-.11.23.06.51.05.74-.02.59-.2,1.14-.09,1.71.1.11.04.35-.08.4-.19.05-.1-.04-.34-.14-.41-.2-.13-.52-.12-.68-.28-.98-.95-2.27-1.37-3.38-2.08-.11-.07-.13-.28-.2-.43l-.04.04c.85-.05,1.68,0,2.39.55.13.1.3.2.45.21,2.02.14,3.52,1.46,5.24,2.29,1.96.95,3.86,2.02,5.8,3.01.52.26,1.07.51,1.64.63,1.01.2,1.88.67,2.73,1.22,1.79,1.14,3.73,1.89,5.84,2.16.5.06.98.23,1.47.32.65.13,1.05.48,1.12,1.16.04.35.18.65.45.87.45.37.88.79,1.38,1.08.61.35.77.77.63,1.45-.13.66.37,1.09.85,1.43.26.18.63.21.95.3.24.07.49.15.56.42.14.51.51.6.97.54.58-.08,1.16-.17,1.74-.24.35-.04.65.12.91.34l.05-.02c-.94.25-1.55.98-2.07,1.69-.37.51-.49,1.32,0,1.89.7.83.94,1.73.76,2.78-.11.63.44,1.06.56,1.63.05.23-.09.51-.35.55-.25.04-.49.05-.74.07-.24.02-.56.03-.59.28-.02.2.15.46.3.64.31.39.66.75.99,1.13.18.21.16.68.01.94-.38.69-1.07,1.04-1.67,1.48-.17.13-.5.16-.71.09-.47-.15-.9-.42-1.37-.59-.31-.11-.67-.15-.94.13-.4.43-.81.48-1.33.18-.43-.25-.74-.1-.98.43-.17.37-.43.78-.24,1.18.13.27.45.45.76.74-.46.38-.88.74-1.29,1.08.28.62.52,1.17,1.2,1.26.44.06.73.36,1.08.57.48.28.69.67.77,1.2.06.36.41.61.7.58.74-.06,1.48-.14,2.21-.21.22.61-.14.98-.37,1.4-.13.25.04.51.31.5.5-.01,1-.02,1.5-.06.92-.08,1.84-.22,2.6.5.73.1,1.38.53,2.19.36.44-.09.68.41.92.74-.44-.01-.84.1-1.2.33,0,0,.03.1.03.1l-.04-.16c.44.11.85.07,1.17-.31.37-.32.75-.63,1.12-.96.28-.25.23-.57.2-.9-.05-.55.13-.73.65-.8.48-.06.98.02,1.44-.24.27-.15.33-.35.08-.74-.26-.4-.26-.58-.03-.85.31-.37.61-.76.92-1.13,0,.03.1-.08.04.03-.07-.05-.15-.09-.2-.15-.2-.29-.19-.57.04-.62,1.14-.26,2.24-.64,3.41-.82,1.23-.18,2.44-.56,3.66-.85.07-.14.2-.29.2-.43-.02-.61.32-1.02.82-1.11,1.33-.24,2.52-.89,3.81-1.24.2-.05.27-.22.2-.41-.02-.06-.11-.13-.18-.15-.67-.18-1.34-.02-1.98.12-.73.16-1.46.4-2.15.7-.37.16-.64.51-.97.76-.36.27-.76.32-1.18.15-.07-.03-.19-.09-.19-.15-.02-.15-.02-.33.04-.46.07-.14.21-.26.35-.34.55-.32,1.34-.38,1.37-1.26.43-.25.83-.61,1.29-.72.63-.14,1-.58,1.46-.93,0,0-.04-.11-.04-.11v.16c-.15-.37-.41-.7-.14-1.16.17-.29.04-.41-.24-.44-.35-.04-.64.09-.95.21-.5.19-.83.06-.76-.24.1-.39.39-.5.73-.53,1.16-.1,2.31-.34,3.47,0,.3.09.66,0,.98-.05.59-.1.98-1.11.63-1.63-.09-.13-.22-.25-.36-.3-.31-.11-.65-.16-.97-.24-.19-.05-.23-.18-.11-.35.04-.06.13-.12.2-.13.98-.12,1.81.12,2.29,1.06.11.22.16.48.42.56.69.21,1.1.72,1.36,1.34.56.06,1.06.09,1.54.17,1.18.19,2.32.08,3.44-.33.62-.23,1.27-.38,1.91-.58.13.07.26.15.38.23,0-.07,0-.13,0-.2-.14,0-.29.02-.43.02.53-.48,1.1-.77,1.82-.41,1.15.57,2.36.73,3.64.75.9.01,1.8.32,2.7.52.14.03.25.19.39.31-.57.6-1.32.65-2.07.73-.73.08-1.47.18-2.36.28.61.33,1.17.02,1.66.35.38.26.95.26,1.45.32.61.07,1.12.31,1.59.74.05.21.11.45.15.7.15.91.59,1.52,1.57,1.7.35.06.34.52.02.78-.54.44-1.13.67-1.85.63-.74-.04-1.46-.43-2.22-.2-.06.02-.13.11-.13.17,0,.07.04.19.09.22.14.08.3.17.46.19,1.34.12,2.63.53,3.94.81.51.11.62.42.25.86-.17.21-.22.42-.31.65-.1.27-.37.37-.58.24-.22-.13-.41-.29-.62-.42-.31-.19-.68-.25-.95-.03-1,.86-2.14.81-3.32.63-.08-.01-.17-.03-.25-.04.36-.49.75-.9,1.44-.58.07.03.16.02.25.02.22,0,.33-.1.3-.32,0-.06-.09-.14-.16-.17-.45-.23-.92-.44-1.44-.29-.97.27-1.94.54-2.97.32-1.74.41-3.51.05-5.26.25-.23.03-.46.14-.68.24-.06.03-.11.14-.12.21,0,.07.06.14.11.2.05.06.12.12.19.15.16.05.33.14.48.11,1.01-.19,1.97-.16,2.94.25.9.37,1.8.32,2.48-.56.31-.39.73-.34,1.14-.15.3.13.57.33.88.43.12.04.3-.1.45-.16.15.07.29.19.45.22.82.13,1.65.17,2.45.38.74.19,1.47.19,2.22.21.66.02,1.32.18,1.97.28.27.04.32.22.07.49-.29.32-.04.38.17.49.26.14.34.32.09.53-.26.21-.24.36.05.51.13.07.24.17.36.26-.33.57-1.11.44-1.46.85-.62.74-1.4.82-2.24.83-.37,0-.59-.23-.73-.56-.06-.14-.21-.25-.32-.37l.04.05c.01-.16.05-.33.03-.49-.01-.14-.07-.38-.12-.38-.65-.05-1.31-.09-1.97-.08-.44,0-.77.25-.92.69v-.05c-.74-.13-1.48-.27-2.21-.4l-.04.05c.46-.35.86-.78,1.49-.88.49-.08.96-.27,1.42-.46.09-.04.1-.26.17-.45-.27,0-.53-.06-.76,0-1.63.49-3.3.49-4.98.46-.24,0-.53.02-.72.15-.47.32-.81.84-1.49.79-.57-.05-.86.42-1.26.72-.62.46-1.4.49-2.14.6-.18.03-.44-.29-.42-.55.02-.25.12-.49.12-.73,0-.12-.2-.34-.27-.33-.65.14-1.35.22-1.93.52-.97.52-1.99.84-3.02,1.17-.07.02-.15.13-.15.19.02.19.17.29.34.22.61-.26,1.21-.6,1.91-.47.15.03.34.12.39.24.06.13,0,.33-.06.48-.2.5-.61.8-1.1.96-1.58.55-3.18,1.06-4.76,1.6-.31.11-.58.31-.87.48.32.51.8.24,1.18.37.07.03.15.06.21.11.14.12.11.25-.09.38-.76.5-1.28,1.32-2.23,1.56-.2.05-.41.31-.5.52-.26.59-.71.84-1.3,1.06-1.22.45-2.47.39-3.71.41-.2,0-.48-.2-.58-.39-.33-.57-.68-.25-1.04-.08l.05-.05c-.17-.03-.36-.13-.49-.08-1.24.47-2.63.45-3.76,1.27-.32.23-.76.36-1.16.43-.78.13-1.4.45-1.92,1.06-1,1.16-2.33,1.91-3.6,2.71-.42.26-.91.43-1.38.59-.8.26-1.61.47-2.42.68-.32.08-.67.17-.99.13-.78-.09-1.47.01-2.14.49-.58.42-1.28.35-1.93.09-.31-.12-.64-.24-.91-.42-1.4-.93-2.99-1.52-4.35-2.51-.4-.29-.88-.48-1.33-.71-.22-.11-.48-.17-.68-.32-1.49-1.09-3.02-2.11-4.42-3.31-2.65-2.25-5.63-3.91-8.78-5.3-.61-.27-1.27-.43-1.93-.57-3.04-.64-5.98-1.62-8.97-2.42-1.05-.28-2.11-.51-3.15-.82-.8-.24-1.55-.62-2.35-.84-.72-.2-1.49-.23-2.22-.39-.49-.11-.95-.32-1.44-.46-1.44-.4-2.71-1.22-4.27-1.39-1.48-.17-2.92-.7-4.37-1.09-.65-.17-1.3-.33-1.93-.55-1.36-.47-2.73-.81-4.18-.8-.92.01-1.84-.05-2.77-.08-.42-.02-.88.05-1.24-.1-1.12-.48-2.28-.44-3.46-.41-.57.02-1.15-.15-1.72-.24-1.9-.31-3.83-.33-5.71-.84-.81-.22-1.61-.39-2.4-.71-.92-.38-1.88-.73-2.91-.69-.17,0-.34,0-.5-.03-2.53-.58-5.1-.97-7.64-1.45-.33-.06-.66-.12-.97-.24-1.02-.41-2.08-.67-3.17-.72-.79-.04-1.45-.37-2.1-.75-.09-.05-.11-.3-.11-.45,0-.2.13-.31.33-.31.58-.02,1.15-.04,1.72-.21.56-.16,1.14-.17,1.71.09.29.13.65.13.99.16.76.07,1.5-.05,2.17-.44.43-.25.86-.49,1.26-.72.38.2.67.35.97.51.3.16.61.28.96.19.72-.19,1.49-.18,2.09-.78.21-.21.59-.31.91-.35.59-.08,1.13-.23,1.69-.44,1.2-.44,1.94-1.22,2.21-2.46.04-.16.07-.33.11-.49.2-.69.55-1.22,1.36-1.26.42-.02.83-.1,1.17-.38.17-.14.21-.28.06-.41-.55-.51-1.14-.98-1.92-1.14-1.39.8-2.4,2.01-3.43,3.2-.41.48-.88.35-1.35.08-.07-.04-.15-.06-.33-.12-.65.41-1.36.85-2.07,1.28-.79.48-1.58.95-2.38,1.42-.21.12-.46.28-.69.28-1.88-.07-3.61.64-5.42.96-.3.05-.46-.12-.37-.42.02-.08.09-.14.13-.21.18-.33.06-.64-.05-.96-.07-.19-.25-.32-.39-.19-.43.42-.9.7-1.52.74-.41.02-.81.15-1.2.23-.15.75.72.59.91,1.09-.09.19-.18.43-.31.62-.3.43-.76.56-1.05.24-.4-.45-.92-.72-1.37-1.09-.46-.38-.95-.37-1.39-.06-.5.36-.96.11-1.44.02-.74-1.05-1.96-.78-2.97-1.02-1.06-.25-2.17-.11-3.25.06-.49.08-.98.24-1.47.35-.41.1-.82.12-1.23-.06-.92-.41-1.82-.18-2.67.21-.28.13-.6.39-.7.66-.27.73-.94.92-1.5,1.25-.52.31-1.07.46-1.68.21-.14-.06-.34-.04-.49.02-1.01.41-2.01.82-3,1.26-.12.06-.18.26-.27.4,0,0-.03-.05-.03-.05-.47.14-1.07.14-1.4.44-.93.85-2.13.85-3.21,1.21-.13.04-.41-.04-.45-.14-.26-.67-.75-.49-1.24-.38-.91.22-1.69.7-2.45,1.21-.6.39-1.23.47-1.91.34-.05-.06-.1-.13-.16-.18-.04-.03-.11-.02-.17-.02.13.05.26.1.38.15-.23.48-.67.73-1.08,1.01-.75.51-1.77.58-2.31,1.43-1.82.6-3.45,1.67-5.33,2.12-.81.19-1.6.49-2.41.68-1.22.29-2.44.59-3.68.75-1.76.23-3.42.76-5.05,1.45-.05.02-.16-.05-.2-.11-.02-.03.01-.14.05-.18.19-.16.39-.32.6-.44,1.62-.9,3.4-1.41,5.08-2.15.53-.23,1.13-.41,1.7-.42,1.8-.03,3.42-.77,5.11-1.23,1.11-.3,2.14-.91,3.2-1.38.06-.03.13-.19.12-.2-.11-.09-.24-.23-.35-.22-.41.04-.87.04-1.21.23-.69.39-1.43.45-2.18.53-.07,0-.21-.1-.21-.11.05-.14.09-.33.2-.39.58-.33,1.18-.62,1.76-.94q1.39-.79,2.27-2.3c.27-.02.6-.02.92-.08.32-.06.73-.09.93-.3,1.02-1.06,2.39-1.52,3.62-2.22-.09-.04-.04.02-.04.05-.24,0-.52-.06-.73.02-1.22.46-2.42.96-3.63,1.45-.64.7-1.44.65-2.27.5l.04.05c.14-.2.29-.39.43-.6.04-.06.08-.18.05-.2-.1-.1-.26-.27-.34-.24-.86.25-1.7.55-2.6.73-.77.16-1.46.71-2.17,1.11-.92.51-.92.55-.48,1.77l.05-.06c-.16-.03-.33-.07-.49-.09q-1.26-.15-2.47-1.17c.17-.15.3-.33.49-.42,1.07-.47,2.1-1.01,3.09-1.62.71-.43,1.49-.76,2.24-1.12.48-.23.92-.22,1.41.08.51.31,1.1.34,1.69.09.54-.23,1.14-.32,1.65-.59.5-.26.87-.83,1.39-.98.54-.16.52-.58.73-.9.03-.05,0-.19-.03-.21-.14-.07-.32-.17-.43-.13-1.23.5-2.41,1.12-3.72,1.28-.41-.19-.33-.57-.42-.87-.23-.79-.46-.93-1.27-.76-.24.05-.48.14-.72.2-.26.06-.41-.18-.3-.47.17-.47.36-.93.5-1.41.02-.07-.2-.32-.27-.31-.82.15-1.63.35-2.44.52-.4.08-.8.23-1.2.04.59-.46,1.19-.91,1.77-1.37.35-.28.35-.78.07-1.1-.47-.53-1.04-.82-1.75-.83,0,0,.04.04.04.04.04-.16.08-.32.14-.47.23-.69.14-.92-.49-1.12-.39-.12-.8-.24-1.21-.26-1.61-.04-3.15.33-4.67.8-.08.02-.17.04-.23.1-.48.44-.89.92-1.58,1.13-.52.16-1.15.26-1.53.76l.06-.04c-.06-.05-.14-.1-.19-.17-.41-.52-.41-.96,0-1.29,1.2-.92,2.53-1.6,4-1.98.52-.14.52-.16.55-.89,0-.25.05-.49.06-.74,0-.08-.06-.15-.09-.23-.07-.15-.15-.29-.24-.48,1.39-.99,3.15-1.5,4.22-2.91-.1-.42-.42-.54-.71-.64-.39-.13-.86-.1-1.21-.3-1.02-.59-2.21-.76-3.22-1.34-.95-.54-2.1-.59-2.98-1.29-.23-.18-.65-.13-.97-.21-1.05-.28-2.1-.56-3.14-.87-.24-.07-.48-.18-.66-.34-.9-.76-1.93-1.3-2.94-1.9-.41-.25-.77-.64-1.06-1.03-.62-.8-1.26-1.56-2.15-2.08-.66-.39-1.15-.96-1.66-1.52-1.12-1.24-2.2-2.51-3-3.99-.16-.29-.32-.58-.45-.88-.36-.84-.7-1.69-1.05-2.54-.37-.91-1.1-1.69-1.01-2.77-.25-.52-.41-1.12-.78-1.55-.62-.72-.99-1.53-1.28-2.42-.23-.71-.57-1.39-.81-2.1-.07-.22-.02-.5.04-.73.03-.15.15-.37.26-.39.71-.13,1.44-.6,2.14-.04.61.48,1.51.24,2.04.87l.06-.03c-.12.06-.32.1-.35.19-.09.27.16.31.35.37l-.06-.04c.19.16.39.1.58,0l-.03.05c.62.12,1.02.54,1.29,1.06.29.54.7.91,1.21,1.2.65.37,1.29.74,1.95,1.1.51.28.6.26,1.62-.22.15-.07.31-.11.46-.16.28.53.73.47,1.2.36q.12.54.81.63s.07.05.07.05l-.1-.04c-.14-.39-.55-.4-.84-.59-.39-.12-.78-.25-1.17-.38-.39-.78-1.18-1.14-1.77-1.72-.3-.29-.61-.57-.9-.87-.28-.29-.11-.74.33-.98.2-.11.5-.22.56-.39.07-.2-.05-.49-.15-.72-.09-.23-.24-.44-.38-.64-.52-.76-1.05-1.5-1.56-2.26-.04-.05-.02-.16,0-.23.04-.17.18-.24.39-.18.16.04.32.15.47.15.13,0,.27-.1.37-.19.04-.03.02-.17-.01-.24-.16-.38-.35-.75-.5-1.13-.02-.05.04-.19.08-.21.14-.05.37-.13.44-.06.37.34.69.72,1.05,1.08.32.32.72.4.85.19.15-.23.12-.45-.01-.69-.28-.51-.54-1.04-.82-1.56-.1-.19-.1-.33.07-.43.06-.03.18-.03.24,0,.36.21.73.4,1.06.65.49.38,1.09.38,1.64.53.07.02.31-.21.31-.32-.01-.8-.71-1.3-.91-2.03-.02-.06,0-.19.04-.21.14-.07.33-.19.44-.14.3.13.56.35.85.52.21.11.43.19.64.28.43-.58-.02-1.19.13-1.58.15-.66.63-.73.99-.88.92-.38,1.78-.8,2.53-1.48.49-.45,1.47-.25,1.72.37.56,1.38,1.61,2.08,2.97,2.48,1.44.43,2.88.89,4.31,1.36.72.23,1.41.55,2.13.73.61.16,1.09.52,1.44.94.33.39.79.63,1.06,1.02.39.55.9.7,1.49.77.16.02.32.1.47.15.03.16.02.33.08.48.1.22.2.51.38.59.61.27,1.25.44,1.87.68.29.11.36.54.22.87-.18.41-.49.65-.89.83-.21.09-.48.29-.52.48-.06.29.27.37.51.43.34.09.63.2.6.64,0,.06.06.15.12.18.15.08.3.17.46.17,2.19.11,4.26.82,6.4,1.17.73.12,1.46.4,2.14.72.99.48,2.04.76,3.07,1.09,1.49.48,1.5.46,3.7.35-.08-.13-.14-.33-.26-.38-.7-.28-1.4-.54-2.12-.78-.64-.21-1.29-.36-1.93-.55-.41-.12-.55-.44-.24-.71.5-.46.57-.98.46-1.66-.4.02-.81.05-1.22.07-.52.03-.95-.03-1.27-.55-.13-.21-.6-.22-.91-.31-.42-.12-.75-.38-.98-.74-.08-.13-.17-.36-.11-.46.12-.19.31-.38.52-.46.22-.09.5-.1.74-.07,1.58.2,3.16.27,4.74.17.24-.02.5.07.74.12,0,0-.04-.04-.04-.04.2,0,.39,0,.59,0l-.04.05c.77.29,1.53.59,2.31.85.21.07.52.05.7-.06.1-.06,0-.41.01-.63,0-.08.02-.16.04-.24l-.04.05c.57-.46,1.16-.58,1.85-.22,2.74,1.43,5.51,2.81,8.38,3.95,1.24.49,2.51.93,3.76,1.39.24.09.47.2.72.23.66.07,1.38-.03,1.97.2.6.23,1.12.7,1.79.86.24.06.5.1.72.21.7.34,1.43.32,2.15.24.53.57.31,1.51,1.04,1.95v.96c.39.34.77.65,1.11,1.01.07.07.03.32-.03.45-.07.14-.2.27-.34.35-.43.25-.86.53-1.33.68-.81.27-1.08.99-1.5,1.59-.22.31,0,.89.4,1.01.41.13.81.25,1.06.6.08.11.14.37.07.44-.27.32-.59.58-.89.88-.23.23-.24.64-.63.73-.15-.05-.28-.11-.43-.15-.04,0-.09.05-.14.07.21.02.41.03.62.05-.04.16-.09.32-.12.48-.13.71-.98.85-1.21,1.52-.09.26-.48.43-.75.6-.63.39-1.28.75-1.92,1.14-.05.03-.06.15-.08.23q1.2.18,2.54-.38l-.05-.02ZM360.84,360.51l.09-.04-.15.03s.05,0,.06,0ZM314.49,333.77h.09s-.15-.02-.15-.02c0,0,.05.02.06.02ZM225.22,201.44c.13-.16.25-.31.38-.47-.12.17-.25.34-.36.53-.04.13-.08.27-.11.4,0,.04.03.08.04.12.02-.19.03-.39.05-.58ZM209.23,326.18l-.09-.13.13.08c.27.46.78.53,1.2.76.16.08.29-.06.28-.26,0-.08-.05-.21-.09-.21-.47-.09-.95-.16-1.43-.23ZM361.43,364.85c.4-.03.81-.02,1.2-.1.22-.04.42-.22.62-.35.04-.02.05-.13.03-.18-.03-.06-.12-.14-.16-.13-.62.16-1.08.67-1.7.82l-.03.08s.04-.14.04-.14ZM232.38,166.88c-.77.03-1.07.7-1.53,1.14-.05.05.05.27.11.4.03.06.13.1.21.11.53.05,1.07-.26,1.16-.71.06-.32,0-.66,0-.98.06-.03.11-.06.17-.09-.04.04-.08.09-.12.13ZM285.92,329.12c-.11-.07-.22-.14-.33-.21,0,.05,0,.1,0,.16.13,0,.26,0,.38,0,.91.67,1.51.88,2.44.82.06,0,.14-.08.18-.15.04-.07.07-.2.04-.23-.49-.47-1.05-.75-1.75-.62-.32.06-.63.15-.96.23ZM213.14,348.23c-.16,0-.35.06-.48,0-.18-.08-.17-.25-.06-.4.1-.13.2-.27.29-.41.41-.67.33-.62-.24-1.18-.68-.66-1.61-.38-2.34-.82-.32-.19-.81-.12-1.23-.14-.25-.01-.66.36-.71.64-.13.74-.26,1.49-.36,2.23-.11.79-.48,1.4-1.13,1.88-.67.49-1.3,1.03-1.93,1.55-.04.03-.02.16.01.23.03.07.11.16.17.17.93.17,1.81.02,2.64-.45,1.53-.88,3.07-1.73,4.59-2.61.27-.16.48-.43.72-.66.1-.14.2-.16.31-.05,0,0-.07.11-.1.11-.06,0-.11-.06-.17-.09ZM228.89,184.63l.03-.05c-.33-.59-.98-.55-1.5-.75-.76-.29-1.06-.16-1.28.56-.34,1.12-.69,2.23-.96,3.36-.16.64-.24,1.31.06,1.96.28.63.27,1.29.11,1.96-.19.81-.33,1.63-.5,2.44l.04-.04c-.08.03-.16.05-.22.09-.58.34-.64.44-.3.87.26.33.44.67.49,1.08-.44.12-.76.45-.78.85-.05.72-.02,1.44-.15,2.16-.03.14.25.38.44.51.18.13.42-.12.44-.4.04-.65.1-1.3.11-1.95,0-.4-.06-.81-.1-1.21.48-.07.97-.15,1.4-.22.55-1.12.59-2.23.27-3.38-.07-.24-.14-.48-.18-.72-.08-.54.49-1.32,1.01-1.18.85.22,1.6-.3,2.43-.16.51.09.74-.21.72-.69-.03-.67-.07-1.32-.65-1.82-.28-.24-.23-.6-.06-.92.23-.44.5-.86.71-1.31.22-.48.11-.97-.08-1.45-.13-.32-.55-.51-.8-.3-.25.21-.46.47-.69.72ZM254.14,138.26l.04-.05c-.12-.46-.23-.91-.35-1.38-.38.16-.58.43-.66.76-.06.24-.04.5-.08.74-.07.4-.22.42-.67.09-.45-.33-.62-.31-.76.06-.3.78-.61,1.55-.91,2.33-.09.23-.17.49-.16.72.05.94-.27,1.77-.54,2.65-.59,1.91-1.03,3.87-1.53,5.81-.02.08-.03.17-.04.25-.09.83-.19,1.65-.66,2.39-.11.17-.05.5.03.72.11.31.29.6.48.87.16.24.41.24.59-.04.12-.19.27-.36.43-.57.31.25.56.47.83.66.18.13.59.05.67-.11.3-.6.57-1.21.64-1.88.1-.85.36-1.66.82-2.35.55-.83.65-1.69.55-2.63-.05-.49-.13-.99-.2-1.48.17-.22.29-.45.46-.61.64-.62.91-1.38.94-2.25.02-.58.14-1.14.28-1.72.22-.88.29-1.81.36-2.72.02-.24-.29-.35-.56-.26ZM242.3,124.29s0,.03,0,.03c.21-.72.41-1.44.63-2.16.07-.23.17-.53.35-.64.5-.29.6-.72.7-1.24.25-1.4.59-2.79.84-4.19.12-.65.14-1.33.17-2,.02-.52-.43-1.01-.92-1.01-.42,0-.83.06-1.25.07-.4,0-.82-.26-1.31.19-.32.5-.72,1.13-1.12,1.75.26.82.25.96.07,1.44-.37,1-1.02,1.94-.67,3.11.03.08-.18.25-.3.37-.21.21-.24.41.02.6.07.05.15.07.22.12.5.37.58.67.26.97-.49.45-.99.89-1.49,1.33-.19.18-.37.37-.56.55-.28.23-.38.55-.39.89-.02.96-.44,1.75-.9,2.56-.26.46-.57.49-.98.56-.41.07-.55.35-.41.75.11.31.24.62.41.9.29.46.18.74-.28.99-.26.14-.22.42-.06.63.09.11.3.25.4.22.22-.08.48-.21.59-.4.11-.19.08-.47.08-.72.02-1.14.42-2.11,1.26-2.89.05-.05.19-.08.23-.05.11.08.29.24.27.31-.37,1.1-.44,2.31-1.18,3.28-.09,1.11-.8,2.01-1.06,3.06-.26,1.05-.67,2.05-1.13,3.04-.34.73-.43,1.57-.78,2.32-.16.36-.12.81-.19,1.21,0,.04-.14.08-.21.08-.07,0-.17-.04-.19-.1-.1-.22-.17-.44-.26-.67-.07.21-.09.44-.21.61-.14.19-.36.33-.55.48-.2.15-.41.28-.63.41-.22.13-.61.1-.67-.1-.07-.22-.11-.49-.05-.69.1-.3.3-.56.48-.86-.86-.14-1.13-.04-1.25.46-.27,1.06-.52,2.13-.34,3.22.09.52-.07.98-.15,1.46-.03.18.13.29.35.28.09-.48.17-.97.29-1.44.07-.28.25-.38.54-.19.12.08.3.06.46.09.37.06.61.37.49.65-.28.69-.68,1.36-.82,2.08-.14.79-.77,1.3-.95,2.03-.08.32-.18.68-.09.98.12.42.55.19.86.24.15.03.32.1.43.21.45.44.68.97.41,1.59-.13.31-.24.56-.19.93.08.61-.12.76-.66.78-.4.01-.83-.19-1.21.1.22,1.05.47,2.09.43,3.18-.02.49-.21.69-.57.96-.3.23-.5.69-.57,1.08-.15.82-.2,1.66-.28,2.5-.04.49.26.76.64.97.53.3.97.22,1.29-.29.22-.35.4-.72.59-1.05-.26-.4-.57-.71-.69-1.08-.2-.63.66-.66.77-1.16.02-.07.1-.14.15-.2l-.04.05c.49.15.63.55.6.98-.07.91-.19,1.82-.46,2.71-.21.69.03,1.06.72,1.4.32.16.67.02.77-.35.13-.48.28-.97.3-1.46.08-1.53.55-2.95,1.11-4.35.15-.38.22-.81.39-1.18.17-.37.5-.68.61-1.07.21-.72.3-1.46.45-2.2.17-.81.21-1.71.59-2.41.38-.7-.03-1.53.53-2.14.04-.05-.06-.33-.16-.39-.46-.27-.49-.63-.31-1.07.16-.39.32-.78.52-1.14.06-.1.27-.13.42-.15.05,0,.17.08.18.15.11.48.12.96.56,1.34.25.21.09.6.01.94-.49,2.12-1.07,4.22-1.42,6.37-.21,1.32-.62,2.61-.98,3.9-.09.31-.33.57-.5.86-.46.8-.76,1.66-.88,2.58-.02.14.09.3.15.46.56-.02,1.18-.24,1.48.51.1.25.28.43.55.31.12-.05.25-.24.26-.37.04-.75.17-1.53.04-2.25-.24-1.31.15-2.5.57-3.66.26-.71.52-1.42.68-2.15.28-1.23.55-2.47.64-3.71.12-1.53.56-2.95,1.01-4.39.37-1.2.71-2.42.9-3.66.18-1.17.41-2.31.73-3.44.58-2.02.95-4.08,1.14-6.17.03-.35-.02-.66-.22-.95l.05.04c.05-.16.17-.33.13-.47-.25-.97-.1-1.96-.07-2.93.01-.43.28-.77.75-.87.33-.06.69-.13.77-.51.29-1.29.57-2.58.83-3.87.02-.11-.12-.26-.2-.41-.37.19-.78.32-1.1.57-.31.24-.52.61-.81.9-.11.1-.3.12-.46.17ZM199.02,320.44c-.66.19-.97.36-1.28.35-.5-.01-.99-.13-1.48-.23-.84-.18-1.65-.06-2.47.14-.05.01-.1.1-.11.17-.01.07,0,.2.04.22.51.28,1,.64,1.54.79,1.62.44,3.14,1.09,4.62,1.86.37.19.76.33,1.13.53.53.29,1.08.42,1.68.39.24-.01.52,0,.73.09.48.22.92.39,1.31-.14.91-.1,1.81-.17,2.55.56.17.17.54.08.62-.15.07-.21.14-.57.03-.67-.53-.5-.94-1.09-1.74-1.34-2.45-.79-4.86-1.73-7.18-2.57ZM283.01,280.35c.32-.44.27-.86.18-1.24-.27-1.04-.58-2.08-.92-3.1-.16-.47-.43-.89-.93-1.11-.28-.12-.26-.38-.25-.64,0-.15-.06-.32-.12-.46-.03-.06-.13-.15-.19-.14-.14.02-.37.06-.4.15-.11.3-.2.63-.21.95-.01.76.1,1.43.79,1.99.41.33.59.97.84,1.48.14.29.18.64.34.91.24.41.55.79.85,1.21ZM368.66,355.7c.41.1.84.12,1.2.29,1.18.57,2.42.42,3.65.35.43-.03.76-.29,1-.66.17-.26.16-.69-.1-.9-.18-.14-.42-.23-.65-.27-.14-.03-.36.02-.46.12-.69.67-1.42.73-2.26.28-.46-.24-.97-.12-1.46-.02-.43.09-.72.37-.92.81ZM248.26,156.67c-.18.36-.27.6-.4.81-.35.57-.22,1.15.03,1.68.13.27.44.48.71.66.29.19.75.03.84-.26.34-1.11.74-2.21.79-3.38,0-.06-.08-.15-.14-.18-.06-.03-.2-.04-.23,0-.36.52-.84.76-1.61.68ZM230.52,177.15c-.59,1.48-1.16,2.95-1.43,4.51-.05.29.2.44.43.55.32.15.75.03.87-.25.16-.38.32-.77.42-1.17.23-.98-.2-1.98.02-2.98.03-.15-.05-.33-.1-.48-.02-.06-.1-.09-.21-.18ZM295.88,349.61c-.7-.35-1.12-.74-1.63-.6-.57.15-.96-.03-1.32-.42-.05-.06-.14-.09-.21-.13-.23-.13-.62-.05-.64.15-.02.15-.06.36.02.46.56.73,1.28,1.27,2.09,1.7.19.1.45-.1.42-.39-.03-.3.06-.46.32-.54.23-.07.47-.12.95-.23ZM272.97,260.91c.26.56.43,1.26.85,1.73.55.61.42,1.43.86,2.04.04.06.15.09.23.09.06,0,.13-.08.16-.14.04-.07.09-.16.07-.22-.37-1.28-.69-2.6-1.7-3.58-.15-.15-.3-.13-.47.08ZM294.86,353.81c-.23.03-.47.06-.72.11-.25.05-.5.09-.72.2-.05.03-.06.35.03.43.78.77,1.3.82,2.2.22.12-.08.23-.26.22-.39,0-.13-.14-.31-.26-.37-.22-.1-.48-.13-.74-.2ZM298.14,353.95c-.38,0-.48-.03-.54,0-.13.06-.25.15-.35.25-.04.04-.03.18.01.24.36.45.63,1,1.19,1.24.13.06.36.05.46-.03.26-.2.48-.45.7-.7.2-.23.16-.52-.08-.6-.55-.17-1.11-.33-1.39-.41ZM233.22,131.52c-.13.19-.34.46-.51.74-.24.4-.16.81.02,1.2.06.12.24.2.38.27.03.02.14-.06.17-.12.49-.8.64-1.71.75-2.62,0-.07-.1-.21-.12-.2-.15.04-.32.08-.42.19-.11.11-.15.29-.26.54ZM226.97,180.4c0,.35.15.61.46.78.21.11.63-.05.83-.31.19-.26.23-.67.02-.9-.15-.17-.37-.31-.59-.38-.21-.07-.63.32-.69.58-.02.08-.03.16-.03.24ZM285.96,348.5c.44.46.94.5,1.41.59.14.03.31-.07.45-.13.06-.03.1-.12.11-.19.01-.07,0-.21-.04-.22-.62-.22-1.24-.13-1.94-.04ZM228.24,166.87c-.45-.03-.67.15-.71.68-.01.15,0,.34.08.45.08.11.23,0,.31-.19.07-.18.22-.24.4-.17.29.1.45-.02.44-.31,0-.27-.17-.42-.52-.45ZM374,357.93c.29-.04.62-.08.94-.14.06-.01.14-.14.13-.17-.06-.13-.13-.3-.24-.35-.33-.15-.66-.04-.96.11-.14.07-.23.22-.34.33.14.06.29.13.48.21ZM224.89,181.53c-.04-.24,0-.46-.1-.54-.16-.15-.38-.25-.59-.29-.06-.01-.24.22-.25.35-.01.22.04.46.14.65.05.11.29.23.38.19.18-.08.31-.26.42-.36ZM237.33,119.6c.14-.06.33-.07.4-.18.08-.12.07-.31.08-.47.01-.2-.08-.31-.25-.29-.07.01-.15.07-.2.13-.31.35-.32.69-.04.8ZM229.58,171.61c-.11-.17-.16-.33-.27-.42-.14-.11-.48.14-.47.38,0,.22.08.45.17.65.02.05.32.05.36,0,.11-.19.16-.43.22-.61ZM298.92,350.61c-.14-.16-.25-.36-.42-.46-.08-.05-.32.03-.39.12-.19.25.07.64.42.63.11,0,.22-.15.39-.28ZM246.27,68.1c0,.18.09.27.27.23.05-.01.11-.11.12-.17.01-.18-.09-.27-.26-.23-.05.01-.08.11-.12.17ZM283.9,74.62s.09.06.14.09c.02-.08.06-.15.06-.23,0-.03-.07-.06-.11-.09-.03.08-.06.15-.09.23ZM356.45,374.76c-.43-.02-.66-.07-.87-.02-.1.03-.15.24-.22.38.13.05.29.19.39.15.19-.08.35-.24.7-.5ZM313.19,333.09c-.01-.15,0-.25-.03-.3-.15-.21-.36-.32-.6-.18-.1.06-.14.25-.19.38,0,.03.11.13.17.13.21,0,.42-.02.64-.03ZM235,133.03c-.13.09-.3.15-.37.27-.1.17,0,.37.18.36.14,0,.27-.16.38-.27.04-.04.04-.17.01-.23-.03-.06-.13-.08-.2-.12ZM375.94,361.15c-.03-.06-.07-.17-.09-.16-.21.04-.41.1-.61.15.04.05.07.13.11.13.14.02.29.03.43.01.06,0,.1-.08.16-.13ZM291,352.14c.06.04.11.1.17.1.06,0,.11-.06.17-.1-.06-.03-.11-.1-.17-.1-.06,0-.11.06-.17.1ZM376.67,356.55c-.14-.05-.3-.14-.43-.11-.24.05-.26.21-.03.3.13.05.3-.01.45-.04.02,0,.03-.15.02-.15ZM261.35,108.23s.14-.05.13-.05c-.03-.12-.07-.24-.11-.36-.03.07-.07.13-.08.2,0,.07.03.14.05.21ZM255.32,143.71c.02.07.02.17.07.2.15.09.27.01.31-.18.01-.06-.02-.17-.06-.19-.16-.09-.27-.02-.31.17ZM229.01,148.73l-.11.17c.06.03.13.09.16.07.05-.03.07-.11.1-.17-.05-.03-.1-.05-.15-.08ZM225.69,171.34c-.04.05-.11.1-.11.16,0,.06.06.12.09.18.04-.05.11-.1.11-.16,0-.06-.06-.12-.09-.17ZM223.96,98.17c-.02-.05-.04-.15-.06-.15-.22,0-.28.07-.14.19.03.03.13-.03.2-.05ZM254.95,227.99c-.04-.25-.11-.27-.2-.04-.02.05.05.13.07.19.04-.05.09-.1.13-.15ZM359.05,357.66l-.16-.1-.03.14.19-.04ZM285.99,362.75v-.17s-.19.07-.19.07l.19.1ZM232.28,131.02l-.09-.17-.07.18h.16ZM230.25,130.49c.08-.03.14-.06.21-.09-.05-.05-.1-.13-.15-.13-.06,0-.13.05-.19.08.05.05.09.1.14.15ZM383.37,368.12l.09-.16-.15-.02.05.18ZM235.37,124.41c.06-.02.11-.05.17-.07-.04-.04-.08-.11-.13-.11-.05,0-.11.04-.17.06.04.04.09.08.13.12ZM251.96,187.5c-.01-.07-.02-.19-.05-.19-.19-.04-.24.05-.11.24,0,.01.1-.03.16-.05ZM223.08,195.96l.09-.14-.15-.02.05.16Z"/>
  <path class="cls-1" d="M47.99,279.3c-.19.35-.39.71-.57,1.07-.03.06-.02.17.02.22.04.06.16.12.21.11.31-.09.65-.16.92-.32.99-.6,2-1.18,2.94-1.86,1.21-.87,2.39-1.79,2.97-3.27.14-.37.46-.68.75-.97.56-.56.79-1.25.86-2.01,0-.1-.2-.33-.27-.32-.57.09-1.13.23-1.69.36,0,0,.05.03.05.03.11-.31.22-.61.33-.91-.43-.29-.85-.09-1.24-.07-.36.03-.63-.06-.91-.29-.75-.59-1.56-.54-2.33-.05-.84.55-1.62,1.2-2.63,1.44-.13.03-.37-.02-.43-.11-.28-.46-.19-1.58.17-1.89.58-.48,1.19-.93,1.78-1.39.52-.41,1.1-.78,1.37-1.44.03-.07.05-.2.02-.22-.12-.09-.27-.21-.41-.21-.15,0-.3.11-.45.17-.31.12-.62.24-.92.36l.05.05c.11-.87.45-1.58,1.26-2,.45-.23.86-.52,1.31-.76.29-.15.6-.31.92-.36,2.45-.42,3.98-1.99,5.12-4.06.24-.43.21-.77-.13-1.12-.11-.11-.17-.28-.24-.41,0-.09-.03-.2,0-.25.49-.58.97-1.16,1.49-1.71.56-.59.86-1.26.63-2.06-.33-1.2.08-2.31.37-3.43.15-.57.42-1.11.53-1.68.16-.82.07-1.71.36-2.47.29-.77.73-1.5,1.04-2.28.13-.32.16-.62.12-.97-.07-.57-.09-1.16-.1-1.74,0-.24,0-.53.12-.71.38-.59.52-1.19.5-1.9-.02-.66.07-1.37.31-1.98.38-.97.33-1.96.43-2.96.2-2,.25-4.01.46-6,.05-.5.22-.98.32-1.47.07-.33.17-.66.16-.99-.03-1.01-.01-2.01.36-2.98.11-.29.03-.66.02-1-.05-1.51-.12-3.01-.15-4.52-.01-.75.05-1.5.06-2.26.01-.42.11-.87-.01-1.25-.46-1.48-.16-3-.28-4.5-.1-1.25.13-2.52-.37-3.73-.09-.22-.09-.5-.07-.75.13-1.6-.1-3.18-.17-4.77-.03-.75.09-1.53-.09-2.24-.19-.75-.19-1.49-.27-2.23-.06-.58-.27-1.14-.43-1.7-.18-.65-.31-1.29-.21-1.98.05-.4.05-.89-.13-1.23-.5-.96-.34-1.96-.28-2.95.03-.52-.03-1-.28-1.45-.76-1.33-1.14-2.79-1.43-4.28-.2-1.06-.36-2.12-.13-3.21.18-.81.19-1.66.31-2.49.06-.41.14-.82.28-1.21.12-.33.14-.63.11-.98-.11-1.3.05-2.58.42-3.67.35-1.03.73-2.05,1.04-3.1.28-.95.78-1.84.71-2.9-.03-.48.19-.98.35-1.46.42-1.27.85-2.53,1.32-3.79.44-1.18.59-2.43,1.13-3.59.35-.75.17-1.66-.04-2.48-.05-.21-.28-.43-.49-.53-1.2-.6-2.39-1.09-3.83-.67-.86.25-1.8.26-2.69.53-.38.12-.85.1-1.24-.02-.83-.25-1.61-.41-2.42.1-.26.17-.65.22-.97.19-.89-.08-1.64.25-2.37.68-.29.17-.6.31-.91.43-.23.09-.53.22-.72.14-1.02-.43-1.99.11-2.98.13-.51,0-.98.15-1.43.42-.78.48-1.79.34-2.56.93-.37.28-.78-.16-1.3-.26-1.05.49-2.23.92-3.54.75-.23-.03-.54.06-.71.21-.72.66-1.69.7-2.52,1.08-.29.13-.66.19-.98.15-.54-.07-1,0-1.41.35-.8.68-1.65.74-2.58.29-.14-.07-.32-.04-.49-.05-.45.48-.86.98-1.51,1.27-.8.36-1.57.53-2.42.22-.39-.14-.81-.21-1.21-.35-.42-.15-.81-.13-1.22,0-.67.21-1.31.18-1.91-.27-.19-.14-.47-.15-.71-.21-.16-.04-.37,0-.49-.1-.84-.67-1.65-1.31-2.8-1.51-.96-.17-1.85-.73-2.78-1.11-.07-.03-.15-.03-.22-.05-.13.1-.3.17-.39.3-.39.55-.38.97,0,1.34.54.52,1.09,1.03,1.62,1.57.57.57.67,1.34.77,2.09.03.24-.03.5-.08.74-.12.57-.25,1.14-.38,1.71-.29.32-.61.61-.85.94-.69.96-1.79,1.19-2.77,1.63-.14.06-.34.04-.5,0-2.11-.41-3.71-1.5-4.6-3.49-.16-.37-.23-.82-.21-1.22.05-.83.19-1.66.3-2.55-.41-.7-1.13-1.17-1.69-1.78-.45-.49-.87-1.01-1.3-1.52-.94-1.09-.87-2.51-1.41-3.71.17-1.66.22-3.36,1.47-4.69.52-.55.99-1.13,1.51-1.73.62-.1,1.28-.22,1.93-.32.62-.09,1.11-.32,1.32-.98.13-.41.51-.64.87-.88.49-.32.97-.67,1.43-1.03.19-.15.43-.34.49-.55.38-1.4,1.62-2.11,2.5-3.07,1.07-1.16,2.4-2.07,3.61-3.1.26-.22.55-.41.74-.68,1.12-1.51,2.72-2.46,4.18-3.55.67-.5,1.35-.98,2.01-1.5.26-.2.6-.43.67-.71.28-1.05,1.26-1.55,1.77-2.41.17-.29.51-.41.85-.47.24-.04.56-.07.69-.23.48-.56,1.19-.56,1.77-.85.61-.3,1.21-.49,1.88-.61,1.48-.25,3.27-1.13,4.75-2.15.34-.23.72-.49,1.11-.54.93-.12,1.75-.5,2.6-.86.84-.36,1.69-.68,2.47-1.2.28-.18.58-.39.9-.43,1.63-.19,2.99-1.08,4.43-1.71.77-.34,1.53-.65,2.32-.93.71-.25,1.38-.58,2.13-.7,1.03-.17,1.82-.84,2.64-1.39.44-.29.83-.51,1.38-.45.23.03.49-.06.71-.17.38-.18.71-.46,1.1-.61.62-.24,1.26-.5,1.91-.59.74-.1,1.13-.72,1.75-.95.63-.24,1.26-.45,1.96-.7.14-.34.28-.73.46-1.09.29-.6.53-1.25.95-1.74.36-.43,1.06-.57,1.41-1,.56-.71,1.24-.78,2.02-.73.25.02.5-.01.75-.03.53-.04.92-.38,1-.95.09-.66.17-1.33.2-2,.02-.5-.02-1.01-.06-1.51-.07-.85.02-1.67.47-2.42-.26-.96.27-1.6.91-2.18.66-.59.76-1.46,1.1-2.21-.35-.92.48-1.56.56-2.38.05-.45.38-.72.74-.96.34-.23.8-.44.96-.78.57-1.18,1.65-1.61,2.73-2.07.54-.23,1.07-.47,1.59-.75.61-.33,1.22-.53,1.92-.48.23.02.54-.05.7-.2.73-.72,1.65-.74,2.58-.77.59-.02,1.18-.02,1.76-.02.25,0,.51,0,.75.06.64.16,1.18.7,1.91.51.69-.18,1.26.47,1.96.24.13-.04.37,0,.46.11.61.67,1.55.61,2.25,1.05.28.17.67.24.87.48.42.51.97.62,1.56.68.69.08,1.31.28,1.63.99.15.32.47.47.8.56.48.14.96.32,1.46.38.54.06.9.32,1.3.65.85.7,1.88,1.18,2.93,1.36,1.84.31,3.49,1.15,5.26,1.65.32.09.64.25.96.25.75,0,1.5-.16,2.25-.11.74.05,1.47.32,2.22.4.49.05,1.03.03,1.49-.14.89-.33,1.77-.47,2.71-.38.3.03.65-.13.94-.27,1.29-.67,2.66-.99,4.12-.9.25.02.53.02.74-.09,1.37-.69,2.96-.52,4.37-1.09.44-.17.99-.08,1.49-.07,1,.04,1.99.17,2.99-.16.36-.12.85-.05,1.22.08.56.2,1.12.3,1.72.34,1.93.13,3.8.65,5.75.67.33,0,.68.1.97.24,1.14.55,2.35.86,3.54,1.26,1.04.36,1.85,1.13,2.45,2.08.18.29.25.64.03.95-.44.61-.38,1.23-.16,1.91.23.72.37,1.46.52,2.2.07.32.18.7.07.98-.3.76-.1,1.49,0,2.23.04.33.14.72.02.99-.44.89-.33,1.78-.19,2.7.05.33.09.7-.02,1-.52,1.43-.15,2.79.21,4.17.49,1.89.26,3.82.19,5.73,0,.16-.06.37-.17.46-.81.72-.86,1.79-1.31,2.68-.96,1.91-2.25,3.53-4.17,4.58-1.03.56-1.98,1.23-2.95,1.9-1.3.89-2.76,1.58-4.18,2.29-1.87.94-3.77,1.83-5.67,2.72-.53.25-1.07.48-1.64.63-.66.17-1.27.4-1.82.82-.25.19-.63.39-.91.34-.96-.14-1.81.11-2.65.52-1.17,0-2.25.76-3.46.4-1.22.28-2.45.56-3.67.86-.89.21-1.77.44-2.66.67-.89.23-1.74.62-2.69.61-.23,0-.48.13-.7.25-.3.16-.55.43-.86.52-1.5.43-2.37,1.53-3.04,2.83-.15.29-.31.62-.33.94-.1,1.28-.67,2.39-1.22,3.51-.4.82-.82,1.63-1.2,2.46-.1.22-.12.49-.09.73.04.35.01.62-.24.91-.33.37-.57.82-.84,1.24-.42.62-.58,1.4-1.18,1.92-.06.05-.11.13-.14.21-.91,2.15-2.14,4.17-2.67,6.48-.21.89-.55,1.75-.88,2.61-.61,1.56-1.14,3.14-1.63,4.74-.22.72-.37,1.47-.45,2.21-.07.59-.19,1.15-.44,1.69-.29.62-.44,1.24-.04,1.91.27.46-.02.98-.05,1.48-.01.24-.02.55-.37.52-.13-.01-.24-.21-.43-.38-.06.27-.13.49-.16.71-.06.41.04.91-.16,1.23-.72,1.12-.55,2.43-.85,3.63-.15.62.04,1.32.04,1.98,0,2.51-.02,5.02-.04,7.53,0,.59-.02,1.16.3,1.7.11.18.12.54.01.72-.34.59-.29,1.09.14,1.61.27.34.34.75.25,1.19-.1.49-.23.98-.26,1.48-.02.32.08.69.42.86,1.22.62,1.38,1.58.87,2.75-.06.14-.07.29-.11.44.43.39.85.77.93,1.42.21,1.75.5,3.49.7,5.24.12,1.08.28,2.16.07,3.26-.08.4,0,.83.02,1.24.04,1.17.14,2.35.12,3.52-.02,1.17-.17,2.33.05,3.51.09.48,0,1.01-.11,1.49-.1.42-.04.81-.03,1.22.04,2.18.03,4.35,0,6.53,0,.32-.14.66-.31.94-.29.48-.37.93-.08,1.42.23.39.16.8.14,1.22-.03.66,0,1.32.04,1.97,0,.15.16.29.23.45.1.24.16.51-.04.7-.75.72-.96,1.76-1.57,2.6.49.9.45,1.82.09,2.69-.31.75-.24,1.47-.08,2.21.18.81.57,1.59.41,2.45.3,1.07.88,2.01,1.66,2.76.54.51,1.33.73,2.11.36l-.04-.04c.63.52,1.41.46,2.14.5.2,0,.43-.2.61-.36.1-.09.19-.29.16-.41-.02-.09-.24-.16-.38-.19-.24-.04-.51,0-.73-.07-.1-.03-.14-.27-.19-.42-.02-.07,0-.18.04-.24,1.34-1.79,2.3-3.83,3.81-5.51.33-.37.56-.82.82-1.24.16-.26-.02-.69-.35-.79-.31-.1-.63-.2-.95-.23-.58-.05-1.17,0-1.74-.07-.52-.08-1.03-.44-1.04-.94-.03-1.14-.55-2.07-1.01-3.04-.11-.22-.16-.47-.25-.73.21-.61.42-1.23.63-1.86h-.03c.17-.18.09-.38,0-.58h.03c.31-.66.84-1.18.95-1.99.17-1.3,1.19-1.95,2.33-2.38.23-.09.49-.13.74-.13,1.56,0,2.95-.5,4.28-1.27.21-.12.45-.22.68-.31.51-.18,1.21.09,1.52.6.16.27.26.59.41.92.43.02.85.03,1.26.06.88.07,1.17.62.73,1.34-.09.14-.28.24-.31.38-.08.4-.09.8-.13,1.2.58.59.12,1.46.58,2.11.19.27.09.68-.18.91-.52.44-.35,1.09-.57,1.62-.12.28,0,.5.12.7.18.29.34.57.3.93-.06.61.38.87.8,1.16.19.13.34.33.56.54-.57.86-1.11,1.7-1.68,2.53-.32.46-.26.94-.16,1.44.07.36.29.6.63.69.48.13.97.22,1.52.34.13.3.28.59.38.9.14.43.06.83-.27,1.15-.24.23-.52.42-.77.64-.21.18-.26.54-.08.66.88.56,1.41,1.39,1.87,2.3.16.31.46.46.81.54.73.16.76.19.72.59-.05.41-.11.82-.17,1.23.12.11.23.26.37.31.4.13.94.09,1.18.35.54.59,1.34.69,1.91,1.18.44.38.9.77.85,1.45,0,.08,0,.17,0,.25.01.5.57.9.31,1.42-.22.45-.51.87-.84,1.25-.55.63-1.12,1.24-1.72,1.82-.54.51-1.22.87-1.58,1.57-.75.23-1.2.88-1.8,1.31-1.02.72-2.11,1.35-3.17,2.01-.3.19-.63.19-.97.1-.32-.08-.7-.24-.91.11-.11.17-.02.47-.02.71,0,.26-.05.59-.33.59-.85-.01-1.46.5-1.94,1.02-.65.71-1.41,1.19-2.25,1.49-1.37.49-2.31,1.62-3.59,2.23-.31.14-.23.44.14.75.19.16.34.35.52.52,0,0-.07.1-.07.1l.07-.11c.14-.08.33-.13.41-.26.13-.2.2-.44.29-.67.31.1.62.19.92.31.06.02.1.13.11.2,0,.07,0,.18-.06.22-.53.41-1.04.85-1.61,1.2-1.42.87-2.87,1.71-3.96,3.03-.1.12-.28.18-.44.24-.54.19-.76.61-.86,1.13-.09.49-.39.7-.9.6-.48-.09-.8.22-1.06.53-.43.51-.74,1.14-1.22,1.59-.93.87-1.46,2.01-2.22,3-.15.19-.28.43-.31.66-.19,1.75-.23,3.5.35,5.21.12.36.41.49.66.69.19.15.17.47-.03.65-.3.28-.62.55-.99.89.11.46.28.93.33,1.41.05.41-.04.83-.06,1.25-.01.35.16.64.37.9.15.18.26.39.39.57-.16.15-.31.24-.4.38-.13.2-.35.5-.29.63.4.82.28,1.6-.02,2.41-.08.21-.04.5.04.72.14.4.26.78.26,1.21,0,.58-.35,1.16-.02,1.72.35.6-.35,1.1-.1,1.7.09.2.06.51-.03.71-.34.72-.26,1.44-.17,2.2.18,1.41.23,2.83-.21,4.22-.07.22-.11.5-.03.71.21.59.22,1.14-.14,1.68-.43.64-.11,1.52-.67,2.13-.19.21-.13.45.05.65.44.47.58.98.36,1.61-.25.71-.42,1.44-.66,2.16-.17.49-.22.91-.02,1.44.17.43.12,1.01,0,1.48-.57,2.37-.66,4.8-.86,7.21-.1,1.24-.25,2.49-.3,3.73-.04,1,.02,2.01.07,3.01.06,1.17.11,2.34.39,3.48.1.42.07.82,0,1.24-.09.5-.09,1.02.18,1.47.28.47.31.91.07,1.42-.25.55-.23,1.16-.02,1.72.49,1.29.38,2.65.45,3.97.06,1.08-.04,2.17-.06,3.25,0,.25-.09.57.03.74.78,1.08.2,2.49.89,3.6.11.18.11.52.02.71-.38.75.32,1.43.08,2.21-.19.62-.11,1.33-.11,2,0,.24.02.56.17.71.74.71.53,1.52.3,2.34-.09.34-.05.64.18.93.09.12.2.35.15.45-.62,1.23-.12,2.68-.78,3.9.17,1.24-.45,2.48-.05,3.73.1.32-.06.65-.44.8,0,0-.14.02-.14.02,0,0,.19-.07.19-.07.08.24.16.47.24.71.08.26.05.61-.17.65-.7.13-.52.73-.74,1.12-.32.57-.83,1.06-.84,1.74,0,.45-.04.8-.41,1.1-.38.32-.82.65-1.03,1.08-.33.67-.81.98-1.5,1.19-1.14.35-2,1.2-3.01,1.81-.36.22-.66.6-1.04.68-1.31.3-2.18,1.23-3.08,2.07-.66.62-1.44,1.1-2.01,1.83-.37.48-1.09.52-1.61.16-.69-.47-1.39-.9-2.19-1.17-.33-.11-.64-.09-.98-.06-.59.05-.62,0-.8-.67-.09-.35-.28-.49-.47-.38-.64.38-1.12,1.03-2.01,1.15-.83-.56-1.79-1.04-2.63-1.75-.63-.54-1.36-.98-2.05-1.44-.64-.42-1.1-.91-1.4-1.68-.43-1.09-1.37-1.87-2.2-2.69-.18-.17-.43-.29-.56-.49-.52-.81-1.26-1.06-2.16-.95-.57.07-.97-.22-1.33-.56-1.11-1.07-1.81-2.42-2.33-3.82-.29-.77-.82-1.51-.74-2.36.08-.88-.51-1.6-.48-2.45.02-.59-.11-1.14-.35-1.7-.16-.36-.17-.81-.18-1.22-.02-1.76,0-3.52-.03-5.27-.02-1.17.04-2.35-.24-3.5-.04-.16-.05-.33-.06-.5-.04-1,.06-2.03-.14-3-.18-.88-.65-1.71-1.04-2.54-.31-.65-.05-1.32-.15-1.98-.03-.19.18-.48.36-.63.94-.74,1.04-1.85,1.36-2.87-.06-1.61.63-3.11.7-4.7.03-.75.17-1.49.3-2.23.26-1.43.1-2.84-.19-4.23-.14-.67-.18-1.3-.16-1.98.04-1.25-.13-2.51.32-3.73.05-.13,0-.33-.07-.47-.39-.7-.4-1.45-.34-2.2.09-1.08-.21-2.18.2-3.23-.16-.74-.18-1.47-.02-2.23.15-.73.11-1.5.15-2.25.04-.84.07-1.67.1-2.51.02-.42-.06-.86.04-1.25.56-2.13.47-4.31.52-6.49,0-.41.04-.85.18-1.23.27-.73.32-1.46.21-2.22-.18-1.26-.17-2.51.3-3.71-.06-1.92.51-3.8.31-5.73-.08-.75-.36-1-1.11-1.03-.62-.03-1.14.23-1.69.43-.31.11-.59.31-.87.49q-1.15.71-2.57.57c-.19.63-.76,1.09-.8,1.8,0,0-.02-.03-.02-.03-.37.18-.76.32-1.09.55-.23.16-.14.4.1.56.07.04.16.07.2.14.19.29.04.76-.28.78-.49.03-.98,0-1.47.01l.05.05c-.13-.1-.25-.23-.4-.3-.26-.12-.56,0-.59.24-.05.41-.05.82-.12,1.22-.02.13-.21.3-.33.32-.33.03-.66-.02-1-.03-.16,0-.4-.03-.47.06-.52.66-1.16.72-1.98.71-1-.01-1.88.57-2.63,1.25-.05.05-.08.15-.09.23-.01.58-.32.95-.86,1.09-.91.23-1.61.95-2.47,1.17-.87.22-1.83.03-2.75.09-.58.03-1.17.14-1.73.29-.81.22-1.56.38-2.41-.02-.57-.27-1.31-.2-1.98-.25-.14,0-.3.14-.44.23-.4.27-.84.21-1.19,0-3.26-1.93-5.78-4.55-7.4-7.99-.14-.3-.27-.63-.48-.88-.83-.98-1.16-2.21-1.71-3.33-.52-1.05-.98-2.13-1.44-3.21-.16-.38-.31-.78-.37-1.19-.16-1-.32-1.97-.91-2.84-.45-.67-.16-1.49-.34-2.21-.15-.62-.11-1.16.35-1.63.31-.31.4-.72.53-1.12.23-.71.42-1.44.97-2.02.15-.16.18-.46.21-.7.1-.63.43-1.08,1-1.35.53-.26,1.04-.53,1.58-.77.32-.14.56-.35.76-.63.52-.77,1.56-.52,2.19-1.1.07-.06.32.04.46.12.56.29,1.11.35,1.68.04.22-.11.47-.21.71-.22.76-.04,1.23-.47,1.6-1.07.09-.14.21-.26.32-.39l-.04.03c.16-.04.34-.15.48-.1,1.25.38,2.51.22,3.7-.14,1.13-.34,2.17-.27,3.14.26.46.25.87.43,1.39.44,1.42.02,2.81.31,4.2.51.12.29.19.53.3.74.18.34.5.46.83.35.24-.08.48-.16.7-.26.76-.34,1.46-.8,2.31-.94.31-.05.61-.27.87-.47.54-.4,1.04-.85,1.58-1.23.19-.13.47-.13.7-.19l-.04-.04c-.12.53-.55.82-.92,1.16-.62.57-1.27,1.1-1.83,1.72-.26.29-.39.74-.47,1.13-.04.2.12.48.27.66.18.21.47.16.68.02.63-.42,1.23-.88,1.86-1.29.27-.17.6-.26.91-.39l.05.05ZM56.03,286.79c.19.04.36-.04.34-.22,0-.08-.25-.15-.38-.22.01-.15.04-.3.09-.44v-.08s.02.14.02.14c-.42-.05-.83-.05-1.08.38-.39-.1-.83.21-1.21-.18.51-1.03,1.03-2.06,1.53-3.07-.56-.78-1.23-.91-2.03-.56-.08.03-.15.08-.22.13-.43.35-.88.39-1.4.21-.32-.11-.71-.02-.9.27-.42.64-.99,1.12-1.55,1.62-.37.33-.7.72-1.02,1.1-.15.19-.24.43-.34.66-.15.32.06.71.41.75.33.03.66,0,.91,0,.44.53.24,1.06.3,1.54q-.33.28,0,.52c-.23.35-.37.83-.69,1.01-.67.38-.68,1.11-1.06,1.62-.07.1-.06.33.01.44.16.24.41.21.66.13.39-.14.78-.28,1.18-.38.1-.02.26.12.36.22.04.04.05.19.01.24-.49.63-.77,1.48-1.68,1.7-.34.08-.65.26-.71.61-.07.5.31.76.7.87.52.14.82.54,1.21.84.49.37,1.01.52,1.63.37.86-.22,1.73-.39,2.65-.6,0,.34,0,.57.01.82-.03.32-.08.64-.1.96,0,.07.04.14.07.21.1-.11.31-.24.29-.32-.06-.31-.2-.6-.3-.9.47.15.94.32,1.42.43.12.03.32-.1.42-.21.54-.63.39-1.16-.4-1.5-.23-.1-.53-.16-.46-.47.05-.21.22-.43.4-.56.19-.14.45-.21.69-.27.49-.11.98-.17,1.47-.29.34-.09.6-.33.69-.66.19-.64.41-1.28.46-1.93.03-.37-.25-.77-.36-1.16-.06-.23-.03-.49-.07-.73-.04-.24-.31-.4-.57-.33-.16.04-.3.16-.45.19-.14.02-.35,0-.43-.08-.09-.11-.13-.34-.07-.46.2-.44.62-.79.52-1.35.16,0,.32.04.47,0,.19-.05.25-.2.16-.35-.03-.05-.14-.09-.21-.08-.26.04-.46.15-.39.47-.3.05-.61.1-.91.17-.38.08-.76.18-1.14.27,0,0-.04.03-.04.03.17-.33.34-.66.52-.99.19-.18.37-.37.56-.55ZM102.37,275.86c.08-.12.1-.11.06.04-.03-.03-.07-.06-.1-.09.17-.11,0,.05.04.04ZM107.42,262.18c.03-.23.02-.52-.23-.52-.24,0-.28.29-.25.52-.28-.18-.56-.48-.89-.33-.28.13-.57.39-.7.67-.18.36-.19.8-.31,1.19-.22.75-.8,1.1-1.53.87-.48-.15-.96-.49-1.43-.16-.77.55-1.42,0-2.12-.11-.04,0-.1-.15-.08-.21.09-.23.15-.5.31-.67.51-.55,1.18-.98,1.58-1.6.54-.85,1.06-1.69,1.74-2.43.23-.25.29-.62.17-.95-.28-.79-.59-1.56-.9-2.33-.06-.14-.22-.23-.38-.4-.85-.2-1.77-.07-2.68-.02-.36.02-.64.24-.77.56-.16.38-.34.78-.36,1.18-.06,1.27-.26,2.49-.9,3.62-.16.28-.15.64-.22.97-.07.33-.03.71-.2.97-.74,1.12-.69,2.39-.79,3.63-.07.92-.03,1.84-.06,2.76-.03,1.08.04,2.18-.35,3.23-.04.1.08.33.19.39.12.07.33.05.47-.01.23-.1.46-.22.64-.39,1.01-.88,2.02-1.76,3-2.67.5-.46.84-1.02.82-1.76,0-.37.26-.61.65-.6,1.28.04,2.15-.86,3.17-1.39.67-.35,1.15-.94,1.22-1.79.02-.2.31-.38.47-.56.27-.32.56-.62.8-.96.16-.23.02-.48-.09-.71ZM84.46,158.52c-.34-.13-.64-.08-.94.13-.2.14-.49.29-.66.07-.4-.5-.67-.26-.96.1-.1.13-.18.28-.29.41-.23.27-.54.38-.63.22-.11-.2-.26-.45-.24-.66.05-.58.19-1.15.27-1.73.01-.11-.12-.25-.18-.37-1.81.94-2.37,2.73-3.02,4.44-.11.28-.08.72.08.96.48.71.61,1.57,1.02,2.27.47.79.93,1.58,1.32,2.42.15.33.39.66.71.62.66-.08.95.68,1.56.61.61-.3.79-1.11,1.52-1.25.02.16.1.34.05.48-.3.86-.48,1.76-.87,2.6-.2.44-.27.96-.34,1.45-.06.44.35.95.84,1.12.39.14.77-.02,1.06-.44.24-.34.47-.69.42-1.15-.03-.25-.02-.51.04-.75.03-.13.2-.35.29-.34.62.06.88-.36,1.13-.8.2-.34.2-.84.73-.92l-.04-.04c-.1.66-.11,1.33-.44,1.94-.07.13-.04.32-.02.48,0,.07.08.19.12.19.41,0,.83.03,1.22-.07.43-.11.78-.08,1.19.09.58.24.65.19.87-.44.17-.48.39-.83.88-1.12.7-.41,1.28-1.01,1.9-1.56.31-.28.59-.59.86-.91.67-.78.82-1.61.05-2.62.78,0,.97-.57,1.24-1.08.33-.62.31-1.29.36-1.95,0-.12-.16-.26-.27-.37-.04-.03-.18,0-.24.04-.37.33-.73.68-1.1,1.01-.34.3-.53.26-1.04-.18-.45-.39-.54-.39-1.01.05-.06.06-.09.14-.14.21-.05.06-.1.14-.17.15-.18.04-.29-.07-.28-.29.03-.54-.12-.99-.56-1.32l.03.04c.13-.34.12-.75.51-.95.18,0,.36,0,.53,0,.29-.29.6-.57.88-.87.41-.44.92-.75,1.5-.83,1.23-.17,2.29-.93,3.57-.92.1,0,.22-.21.3-.35.02-.04-.04-.18-.09-.22-.56-.33-.81-1.4-1.79-.75-.04.03-.27-.16-.36-.28-.21-.29-.41-.11-.64-.04-.2.06-.38-.09-.3-.26.34-.67.62-1.34.55-2.11-.01-.12-.17-.24-.28-.33-.04-.03-.17,0-.22.04-.47.35-.89.75-1.14,1.3-.2.46-.44.89-.87,1.19l.04.04c-.05-.24-.19-.49-.15-.71.06-.32.22-.63.37-.92.29-.54.37-1.09.18-1.69-.1-.31-.16-.63-.23-.92-.53-.14-.92,0-1.17.35-.48.68-.91,1.4-1.38,2.09-.14.2-.33.37-.5.55-.17.18-.57.26-.65.11-.07-.14-.08-.31-.09-.47-.04-.45-.25-.62-.55-.44-.14.08-.33.12-.44.24-.8.85-1.61,1.66-2.73,2.13-.4.17-.44.67-.3,1.1h-.16s.12-.05.12-.05c.29.19.54.44.53.8-.01.75-.05,1.49-.15,2.23-.02.17-.33.35-.54.43-.26.09-.46-.12-.61-.32-.21-.29-.21-.62-.1-.96.05-.14.1-.28.13-.43.06-.22-.03-.29-.21-.16-.04.03-.06.14-.04.21.04.14.11.28.17.42ZM91.78,212.24c.43-.31.46-.35.29-.67-.07-.13-.19-.24-.29-.35.41-.54.83-1.04.53-1.82-.18-.47-.03-1,.14-1.48.18-.49.18-.98.13-1.49-.1-1-.2-1.98-.09-3,.09-.81-.43-1.41-1.13-1.8-.1-.06-.34,0-.44.08-.3.26-.56.28-.87.02-.19-.16-.41-.28-.59-.41-.02-.12-.05-.2-.06-.28-.19-1.4-.09-2.86-.88-4.13-.08-.13-.12-.34-.08-.48.3-1.19-.2-2.33-.24-3.49-.04-1.19-.49-2.28-.84-3.4-.06-.18-.34-.34-.56-.42-.23-.09-.61.34-.62.64,0,.08-.04.17-.03.25.12,1.42.23,2.84.37,4.26.22,2.17.48,4.33.66,6.5.08,1,.02,2.01,0,3.01,0,.16-.08.32-.14.47-.02.06-.11.14-.16.13-.15-.03-.36-.05-.42-.15-.42-.76-.45-1.61-.39-2.44.09-1.35-.07-2.67-.27-4-.14-.93-.25-1.81-.81-2.6-.18-.26-.3-.61-.32-.93-.05-.8-.53-1.39-.88-2.05-.07-.13-.31-.29-.39-.25-.21.1-.52.27-.55.45-.2,1.31-.82,2.55-.59,3.93.08.47-.02,1.02-.18,1.48-.31.97-.37,1.97-.52,2.96-.17,1.1.03,2.16.32,3.19.15.56.35,1.11.48,1.68.15.66.56,1,1.29.82.28-.07.45.16.54.39.16.41.53.26.94.35-.07.72.2,1.44.12,2.19-.03.24-.12.52-.44.46-.2-.03-.35-.07-.41.09-.19.55-.44,1.1-.53,1.67-.13.81-.33,1.65.19,2.43l-.04-.02c.2.45.34.95.63,1.34.31.42.48.84.51,1.36.06.99.17,1.98.26,2.96.85.5,1.46,1.24,1.6,2.14.13.83.68,1.49.74,2.32,0,.06.24.11.36.15.73-.39,1.04-1.04,1.21-1.83.23-.07.46-.15.69-.21.34-.09.64-.22.7-.61.12-.82.25-1.61.16-2.46-.15-1.48-.33-2.97-.08-4.47.07-.44.19-.78.66-.94.08-.03.17-.32.12-.41-.26-.45.13-.78.18-1.16ZM97.04,216.59c.06-.13.15-.25.16-.38.01-.14-.06-.28-.09-.42-.06.12-.15.25-.16.37-.01.14.06.28.09.43ZM83.27,188.88l-.2-.38c-.06.04-.18.08-.18.12,0,.14-.01.32.06.41.1.12.24.03.31-.15ZM97.14,219.79l-.07-.15-.06.15h.12ZM97.02,214.17l.07.19.08-.19h-.15Z"/>
  <path class="cls-1" d="M356.85,342.27c-.4.14-.79.29-1.19.39-.13.03-.3-.04-.43-.11-.16-.08,0-.48.25-.59,1.31-.55,2.61-1.13,3.94-1.62.65-.24,1.34-.01,1.92.33.24.14.31.55.46.82.71.14,1.38.08,1.97-.29.37-.23.73-.43,1.16-.31,1.02.28,2.01.08,2.95-.29.91-.35,1.78-.38,2.64.06.35.18.59.15.9-.07.18-.13.47-.24.68-.2,1.16.24,2.26.63,2.98,1.65.22.32.48.41.84.41.25,0,.48.05.67.26.16.17.38.37.59.4.66.09,1.33.09,1.97-.19.34-.15.53-.35.48-.75-.03-.28.17-.46.41-.55.29-.11.66-.1.9-.28.38-.28.67-.67,1-1.02q-.79-.75-.95-1.85c-.59-.24-1.34-.12-1.79-.77-.2-.29-.57-.3-.91-.31-1.09-.03-2.17-.06-3.26-.11-.22,0-.31-.14-.24-.31.02-.06.11-.14.17-.14.67-.05,1.33-.1,2-.13.6-.03.71-.18.67-1.03l-.04-.05c.32.09.68.12.95.29,1.16.71,2.46,1.04,3.71,1.45.5.46.43,1.09.62,1.7.47.03.96.02,1.45.09.34.04.63.22.74.58.05.16.08.33.16.48.23.48.6.8,1.15.85.67.06,1.33.11,2.02.17.6-.27,1.21-.56,1.83-.8.22-.08.49-.06.74-.06.2,0,.53.34.47.51-.05.14-.16.29-.28.37-.13.09-.31.11-.47.13-.28.04-.5.16-.46.45.03.24.13.49.27.69.08.12.28.22.43.23,1.02.07,1.29.93,1.73,1.61.15.23.04.46-.25.57-.31.12-.63.2-.93.34-.07.04-.12.33-.08.36.34.23.82.25,1.03.67.06.12.03.41-.03.43-1.2.43-2.43.68-3.7.49-2.25-.33-4.52-.31-6.77-.49-.41-.03-.86-.06-1.24.06-.67.21-1.34.06-1.99.15-1.56.21-2.97-.42-4.44-.7-.23-.04-.47-.2-.64-.37-.69-.68-1.54-.56-2.37-.48-.28.02-.36.3-.41.55-.12.6-.37.71-.91.58-1.89-.45-3.79-.7-5.74-.68-.43,0-.81-.17-1.06-.56-.96-1.49-1.73-2.16-3.11-2.69-.59-.23-1.15-.21-1.59.35-.43.54-1,.52-1.6.35-.22-.07-.31-.28-.2-.61.05-.16.13-.31.2-.46.1-.1.4.12.34-.22-.1.09-.19.17-.29.26Z"/>
  <path class="cls-1" d="M184.61,348.31c.58.27.71.53.43.86-.21.25-.37.62-.65.75-.85.4-1.32,1.24-2.09,1.73-.7.44-1.33,1-1.98,1.51-.04.03-.03.16,0,.21.04.05.15.11.2.09.31-.1.64-.19.93-.34.58-.31,1.14-.68,1.73-.99.08-.04.32.1.41.21.08.11.08.29.08.44,0,.07-.08.16-.14.2-.66.37-1.13.94-1.64,1.48-.75.78-1.6,1.47-2.59,1.94-.33.16-.5.43-.59.76-.1.4.2.59.44.81.06.05.08.15.12.22-1.29,1.28-2.99,1.76-4.61,2.4h.04c.02-.37.23-.63.53-.8.5-.29,1.03-.54,1.52-.84.08-.05.08-.25.09-.38,0-.03-.14-.09-.22-.09-.25.01-.52,0-.74.09-.62.25-1.21.55-1.82.83-.76.34-1.52.68-2.14.95-.91-.14-1.65-.34-2.38-.34-.7,0-1.29-.31-1.85-.43-.9.27-1.62.67-2.33,1.12-.27.17-.61.26-.93.34-.25.07-.5,0-.66-.24-.2-.3-.18-.74.03-.92.13-.11.24-.24.38-.32,1.4-.77,2.7-1.67,3.93-2.68.85-.69,1.79-1.19,2.84-1.52.5-.16.93-.41.65-1.08-.04-.09.08-.34.18-.39.45-.23.94-.39,1.21-.85.21-.35.36-.74.52-1.07.21-.08.35-.2.51-.2,1.56-.07,2.9-.69,4.14-1.58.89-.64,1.87-1.06,3-1.14.48-.04.97-.23,1.43-.43.43-.19.78-.09,1.19.03.34.1.62-.16.88-.39,0,0-.06.04-.06.04Z"/>
  <path class="cls-1" d="M353.44,339.29c.32.15.66.21.9-.1.2-.26.31-.59.48-.87.13-.21.29-.38.58-.4.98-.08,1.97-.48,2.84.4.2.2.62.22.95.24.89.03,1.78.01,3.21.01-1.26-.15-2-.23-2.74-.33-.06,0-.17-.15-.16-.17.07-.11.16-.28.26-.29,1.16-.11,2.31-.19,3.44-.27.12.22.22.35.26.5.1.36.3.56.67.62.69.13,1.33-.06,1.98-.2.09-.02.34.17.33.25-.02.23-.07.52-.22.65-.17.14-.46.16-.7.19-.99.09-1.98.17-2.97.25-.17.01-.34.02-.5,0-.89-.15-1.73-.47-2.68,0-.8.38-1.79.16-2.65.59-.58.29-1.29.34-1.95.4-1.17.11-2.32.17-3.48.45-1.05.25-2.16.19-3.24.03-.58-.08-1.03-.55-1.67-.46-.49.07-1,.04-1.51.05,0,0,.04.05.04.05.14-.19.24-.49.42-.56.62-.23,1.28-.37,1.92-.54.4-.11.81-.14,1.15-.43.63-.54,1.4-.61,2.13-.37.97.32,1.97.31,2.96.39l-.05-.03Z"/>
  <path class="cls-1" d="M142.38,373.67c-.06-.14-.2-.3-.18-.43.09-.58-.07-.93-.69-1.04-.13-.02-.27-.19-.35-.32-.08-.13-.15-.31-.12-.45.03-.11.27-.29.32-.26.66.34,1.24-.32,1.88-.12l-.05-.04c.05.14.03.27-.07.39,0,0,0,.1,0,.1,0,0-.03-.16-.03-.16.31-.06.67-.04.91-.2.54-.35,1.01-.8,1.52-1.19.65-.49,1.35-.88,2.18-.97l-.04-.04c.07.43,0,.81-.32,1.15-.63.66-1.44,1.11-2.05,1.82-.53.61-1.42.82-2.01,1.45-.2.21-.62.2-.94.29l.05.02Z"/>
  <path class="cls-1" d="M194.61,359.52c.12-.22.25-.43.36-.66.33-.71.96-.86,1.65-.86.5,0,.86.48.79,1.04-.03.24-.12.47-.18.68-.97.39-1.9.74-2.93.7-.21,0-.34-.08-.33-.29,0-.06.11-.11.17-.17.17-.17.34-.34.51-.51,0,0-.05.07-.05.07Z"/>
  <path class="cls-1" d="M389.97,337.5c.6-.4,1.33-.45,1.9-.18.99.47,2.09.5,3.07.95.2.09.28.19.21.34-.03.07-.08.15-.14.19-.7.41-.92.4-1.48-.18-.25-.25-.51-.45-.84-.47-.66-.04-1.33,0-1.99-.05-.34-.02-.62-.23-.73-.6Z"/>
  <path class="cls-1" d="M213.22,359.45c1.26-.22,2.31-.95,3.5-1.36.49-.17.98-.16,1.46-.28l-.05.02c-.27.51-.52,1.04-.83,1.53-.18.29-.49.54-.85.37-.68-.33-1.28-.12-1.92.13-.5.2-.99.1-1.27-.45,0,0-.06.05-.06.05Z"/>
  <path class="cls-1" d="M283.65,65.25c-.22.07-.45.14-.67.21-.04-.32-.1-.63-.1-.95,0-.14.13-.29.23-.4.27-.3.54-.62.86-.86.16-.12.45-.11.66-.06.1.02.19.25.22.4.09.49,0,.97-.18,1.43-.1.24-.3.39-.57.36-.16-.02-.31-.09-.46-.13Z"/>
  <path class="cls-1" d="M148.8,367.97l-.02-.98s-.05.02-.05.02l.57-.56v.04c.69-.45,1.38-.95,2.23-1.05.11-.01.26.13.37.23.03.03,0,.18-.05.23-.92.84-1.84,1.7-3.1,2.03,0,0,.05.05.05.05Z"/>
  <path class="cls-1" d="M224.6,173.57c.09.18.23.34.21.46-.13.55-.28,1.1-.51,1.61-.07.15-.42.24-.64.23-.39-.02-.68-.41-.73-.85-.04-.36.07-.67.36-.84.42-.24.87-.41,1.31-.61Z"/>
  <path class="cls-1" d="M348.03,343.16c.12-.49.46-.74.85-.84.81-.2,1.63-.36,2.45-.5.09-.02.23.16.31.28.03.04-.03.18-.09.22-1.05.78-2.19,1.15-3.52.84Z"/>
  <path class="cls-1" d="M178.95,368.23c0,.85-.17,1.45-.69,1.95-.5.48-1.09.7-1.74.79-.06,0-.15-.06-.2-.12-.05-.06-.11-.17-.08-.23.21-.58.68-.94,1.16-1.26.27-.18.62-.25.9-.43.22-.15.37-.39.65-.7Z"/>
  <path class="cls-1" d="M153.31,364.83c-.06-.05-.14-.09-.18-.15-.04-.06-.05-.14-.05-.21,0-.08,0-.18.06-.22.47-.44.93-.89,1.43-1.3.26-.22.6-.25.93-.14.14.05.29.14.39.25.13.15.07.3-.08.43-.13.1-.22.26-.35.33-.62.36-1.25.7-1.89,1.04-.06.03-.16-.01-.24-.02Z"/>
  <path class="cls-1" d="M241.01,327.16c.2.13.43.23.6.39.1.1.2.35.15.45-.27.51-.59.99-.91,1.47-.1.15-.57.22-.69.08-.15-.18-.31-.4-.33-.62-.01-.23.09-.5.23-.69.3-.4.65-.75.98-1.13,0,0-.04.05-.04.05Z"/>
  <path class="cls-1" d="M105.99,226.67c.2-.27.3-.56.5-.66.51-.26,1.06-.48,1.61-.63.16-.04.42.17.58.32.05.05-.09.3-.16.44-.03.07-.1.14-.16.19-.71.57-1.47.65-2.38.33Z"/>
  <path class="cls-1" d="M169.83,309.11c-.75-.19-1.31-.64-1.65-1.33-.09-.19-.08-.45-.05-.67.02-.18.44-.15.63.03.55.49,1.05,1.01,1.31,1.72-.08.08-.16.16-.24.24Z"/>
  <path class="cls-1" d="M288.42,69.64c.21-.97.4-1.95.63-2.91.03-.11.25-.2.4-.23.24-.04.48.21.47.45,0,.16.04.35-.02.49-.22.54-.43,1.09-.74,1.57-.16.25-.52.39-.79.57,0,0,.05.05.05.05Z"/>
  <path class="cls-1" d="M190.86,348.78c.08.03.2.06.21.1.02.13.04.35-.03.39-.63.37-1.26.74-2.03.71-.06,0-.16-.09-.18-.15-.02-.07,0-.2.05-.23.62-.36,1.2-.84,1.97-.82Z"/>
  <path class="cls-1" d="M187.65,350.64c-.25.26-.58.28-.91.28-.36,0-.59-.21-.67-.59-.07-.32.12-.62.49-.76.15-.05.33-.09.48-.06.14.03.31.13.36.25.12.28.17.58.25.87Z"/>
  <path class="cls-1" d="M199.68,356.9c-.04.27-.19.44-.45.52-.3.1-.36.27-.2.54.04.06.03.22.01.23-.15.04-.34.12-.45.07-.21-.11-.39-.29-.55-.47-.2-.24-.04-.71.24-.81.48-.17.95-.13,1.44-.03,0,0-.04-.05-.04-.05Z"/>
  <path class="cls-1" d="M261.68,53.51c.13-.98.6-1.78,1.31-2.43.05-.04.16-.03.23-.04,0,0-.04-.04-.04-.04.02.87-.39,1.56-.92,2.19-.13.16-.41.19-.63.27l.05.05Z"/>
  <path class="cls-1" d="M237,343.82c0-.18,0-.36,0-.55l-.05.04c.4-.09.81-.17,1.06-.55l-.05.04c.38-.13.87-.05,1.07-.55l-.07.04c.13.08.34.14.38.25.04.11-.04.34-.14.42-.67.48-1.4.81-2.24.8l.05.05Z"/>
  <path class="cls-1" d="M277.09,59.69c.34.82.41,1.51.12,2.22-.03.07-.11.11-.17.17-.05-.06-.15-.11-.16-.18-.12-.71-.09-1.4.21-2.2Z"/>
  <path class="cls-1" d="M48.53,267.75c-.33.46-.7.88-1.25,1.06-.05.02-.15-.01-.19-.06-.04-.05-.09-.16-.06-.21.35-.59.81-.96,1.55-.74,0,0-.05-.05-.05-.05Z"/>
  <path class="cls-1" d="M374.72,336.06c-.06-.13-.13-.21-.12-.27.07-.29.3-.36.56-.36.16,0,.32.02.48.04-.11.06-.22.12-.32.19-.2.13-.39.26-.6.4Z"/>
  <path class="cls-1" d="M248.12,320.39c-.14-.05-.28-.09-.4-.16-.04-.02-.06-.15-.03-.21.13-.25.37-.27.58-.19.1.04.16.22.2.35.01.04-.07.14-.13.17-.06.04-.15.03-.22.04Z"/>
  <path class="cls-1" d="M158.32,377.53c-.12-.08-.35-.17-.34-.25.02-.39.71-.8,1.1-.68.16.05.22.45.09.62-.21.3-.52.32-.84.31Z"/>
  <path class="cls-1" d="M387.15,339.12c.62-.54,1.17-.56,1.73-.45.11.02.19.19.27.31.01.02-.09.15-.16.17-.58.2-1.13.04-1.84-.03Z"/>
  <path class="cls-1" d="M354.75,344.78c-.16-.02-.32-.03-.47-.07-.07-.02-.13-.08-.19-.13.08-.09.15-.26.24-.27.31-.04.63-.04.94-.04.06,0,.17.12.16.15-.05.11-.11.26-.21.31-.14.06-.31.04-.47.06Z"/>
  <path class="cls-1" d="M279.29,70.35c.02-.14.03-.31.07-.46.02-.07.1-.11.15-.17.09.09.26.17.27.27.03.23.02.48-.03.71-.02.11-.17.2-.26.3-.07-.13-.15-.26-.2-.4-.03-.07,0-.16,0-.25Z"/>
  <path class="cls-1" d="M281.59,64.81c-.04.15-.05.34-.15.44-.09.1-.27.14-.41.18-.03,0-.13-.1-.14-.17-.04-.23-.09-.48-.06-.71.01-.1.2-.19.33-.25.05-.02.16.03.2.08.09.13.16.28.23.42Z"/>
  <path class="cls-1" d="M286.67,295.17c-.07-.01-.16,0-.19-.05-.33-.35-.17-1.05.28-1.16.1-.03.33.11.35.2.07.45-.12.85-.43,1.01Z"/>
  <path class="cls-1" d="M196.55,352.45c.03.19-.05.32-.24.37-.24.06-.48.09-.65-.14-.03-.04.03-.19.08-.21.22-.08.44-.15.67-.2.03,0,.09.12.14.18Z"/>
  <path class="cls-1" d="M222.2,111.26c.04.47.29.94.05,1.4-.04.08-.27.09-.41.1-.04,0-.13-.1-.13-.15,0-.16,0-.33.06-.46.14-.29.32-.56.47-.84,0,0-.04-.05-.04-.05Z"/>
  <path class="cls-1" d="M369.96,336.44c0,.06,0,.15-.03.18-.17.14-.5.12-.61-.04-.02-.04,0-.15.02-.16.14-.04.29-.08.43-.08.06,0,.12.07.18.1Z"/>
  <path class="cls-1" d="M353.5,339.33c-.11-.22-.24-.43-.3-.67-.01-.06.21-.24.33-.25.14-.02.3.07.44.15.03.02.04.18,0,.22-.16.18-.35.35-.52.52,0,0,.05.04.05.04Z"/>
  <path class="cls-1" d="M161.77,374.57c-.31.44-.42.62-.56.79-.04.04-.17.06-.22.03-.19-.09-.22-.26-.05-.39.16-.13.37-.19.84-.42Z"/>
  <path class="cls-1" d="M345.26,367.72c.09-.12.16-.24.26-.33.03-.02.18.02.2.06.07.18-.02.31-.22.34-.07.01-.15-.04-.24-.07Z"/>
  <path class="cls-1" d="M189.21,361.59c-.13.06-.26.12-.39.18-.04-.14-.13-.28-.12-.41.01-.2.18-.29.34-.16.1.08.11.26.17.39Z"/>
  <path class="cls-1" d="M213.84,358.48c-.21.33-.41.65-.62.98,0,0,.06-.05.06-.05-.24-.04-.57-.05-.6-.32-.02-.18.21-.4.34-.58.04-.06.14-.09.22-.11.16-.03.33-.04.49-.06,0,0,.12.14.12.14Z"/>
  <path class="cls-1" d="M384.7,337.63s-.1.14-.12.13c-.12-.05-.23-.12-.35-.18.04-.04.1-.13.13-.12.12.04.23.11.34.17Z"/>
  <path class="cls-1" d="M232.56,338.61s-.09-.1-.14-.15c.07-.03.15-.08.22-.08.07,0,.2.03.21.07.04.16-.08.21-.3.16Z"/>
  <path class="cls-1" d="M358.79,346.18c-.06-.02-.17-.01-.19-.05-.06-.13.02-.2.22-.16.06.01.1.08.15.12-.06.03-.12.06-.18.09Z"/>
  <path class="cls-1" d="M217.35,309.48c-.23,0-.47,0-.7-.04-.09-.02-.16-.17-.24-.26.14-.04.28-.12.41-.1.25.03.42.19.49.45,0,0,.04-.05.04-.05Z"/>
  <path class="cls-1" d="M235.45,344.31c.44-.4.95-.58,1.55-.5,0,0-.05-.05-.05-.05-.38.57-.97.45-1.52.5l.02.05Z"/>
  <path class="cls-1" d="M41.13,309.35c-.07-.01-.16,0-.21-.04-.16-.13.01-.51.21-.48.05,0,.14.09.13.13-.03.13-.08.26-.13.39Z"/>
  <path class="cls-1" d="M279.51,65.08c-.06-.13-.14-.26-.18-.4-.01-.05.05-.17.11-.19.15-.06.26.04.28.24.01.08,0,.17-.04.23-.03.06-.12.08-.18.12Z"/>
  <path class="cls-1" d="M360.97,353.14c-.13.07-.26.2-.37.19-.19-.02-.25-.18-.15-.34.04-.06.16-.13.19-.11.12.07.23.17.34.26Z"/>
  <path class="cls-1" d="M148.78,366.99c-.08-.2-.33-.4-.12-.6.19-.19.42,0,.62.09,0,0,.01-.04.01-.04-.28.1-.46.29-.57.56l.05-.02Z"/>
  <path class="cls-1" d="M178.51,365.85c-.19.04-.31-.02-.32-.18,0-.06.08-.16.13-.17.14-.02.35-.04.4.03.1.15,0,.28-.21.32Z"/>
  <path class="cls-1" d="M147.71,368.98c.36-.34.72-.68,1.09-1.01,0,0-.05-.05-.05-.05-.05.67-.41,1-1.08,1.02,0,0,.04.04.04.04Z"/>
  <path class="cls-1" d="M250.56,179.47c0-.29.18-.42.43-.38.11.02.2.18.3.27-.11.07-.22.19-.34.19-.14,0-.29-.08-.43-.13,0,0,.04.05.04.05Z"/>
  <path class="cls-1" d="M267.57,97.55s.18.05.17.07c-.02.13-.02.3-.1.39-.15.17-.3.11-.28-.12,0-.12.13-.24.21-.34Z"/>
  <path class="cls-1" d="M381.66,368.01c-.19.12-.37.25-.56.36-.05.03-.18.01-.22-.03-.15-.16-.09-.29.14-.3.23-.01.46.01.69.02,0,0-.04-.05-.04-.05Z"/>
  <path class="cls-1" d="M379.38,371.65c.06.03.12.06.18.1-.04.05-.07.12-.12.13-.19.06-.28,0-.24-.16.01-.04.11-.05.18-.07Z"/>
  <path class="cls-1" d="M300.41,327.15c.1-.12.19-.29.32-.35.12-.05.29.01.44.03,0,.05,0,.14-.02.16-.06.04-.14.06-.22.08-.16.03-.32.06-.48.08,0,0-.04,0-.04,0Z"/>
  <path class="cls-1" d="M303.99,327.63c-.24,0-.48.02-.72,0-.07,0-.18-.09-.18-.14,0-.2.14-.33.32-.24.2.1.36.28.54.43l.05-.05Z"/>
  <path class="cls-1" d="M235.03,336.77c.1-.1.2-.2.31-.29.05-.04.16-.06.2-.03.14.11.09.2-.13.22-.14.01-.29.03-.43.05,0,0,.05.05.05.05Z"/>
  <path class="cls-1" d="M54.13,272.31c-.13.05-.26.11-.4.16.06-.32.3-.06.44-.14,0,0-.05-.03-.05-.03Z"/>
  <path class="cls-1" d="M50.01,274.22c.28-.29.64-.38,1.02-.42l.05-.04c-.37.13-.75.27-1.12.4,0,0,.05.05.05.05Z"/>
  <path class="cls-1" d="M263.62,49.96c0,.41-.02.81-.43,1.04,0,0,.04.04.05.04-.08-.44,0-.81.43-1.04l-.04-.04Z"/>
  <path class="cls-1" d="M99.26,169.16c-.06.12-.11.24-.17.35-.05-.05-.12-.09-.15-.15-.09-.17-.04-.29.15-.33.05,0,.11.08.17.12Z"/>
  <path class="cls-1" d="M48.45,275.2c.3-.31.64-.49,1.09-.35l-.04-.05c-.28.38-.68.39-1.1.35,0,0,.05.05.05.05Z"/>
  <polygon class="cls-1" points="282.63 68.97 282.53 69.16 282.46 68.96 282.63 68.97"/>
  <path class="cls-1" d="M287.82,69.64c.2,0,.4,0,.6,0,0,0-.05-.05-.05-.05-.06.12-.09.32-.18.34-.28.07-.24-.21-.32-.35,0,0-.05.06-.05.06Z"/>
  <path class="cls-1" d="M236.99,342.79c.26-.3.6-.42.97-.48l-.03-.05c0,.19,0,.37,0,.56,0,0,.05-.04.05-.04-.36,0-.71,0-1.07-.01l.06.04Z"/>
  <path class="cls-1" d="M236.99,343.27c-.12-.08-.24-.15-.36-.23.12-.09.24-.17.37-.26,0,0-.06-.04-.06-.04,0,.19,0,.37,0,.56l.05-.04Z"/>
  <polygon class="cls-1" points="367.97 338.45 368.11 338.52 367.95 338.58 367.97 338.45"/>
  <path class="cls-1" d="M234.98,336.73c-.09.09-.19.19-.28.28-.02-.04-.04-.09-.07-.13.13-.03.26-.07.39-.1,0,0-.05-.05-.05-.05Z"/>
  <path class="cls-1" d="M213.77,309.56c.06-.13.09-.34.17-.36.29-.08.27.2.33.37,0,0,.04-.05.04-.06-.2,0-.39,0-.59,0l.04.04Z"/>
  <path class="cls-1" d="M295.87,325.91s.04-.13.05-.13c.06,0,.11.03.17.05-.02.04-.04.13-.05.13-.06,0-.11-.03-.17-.05Z"/>
  <path class="cls-1" d="M193.07,347.75c.32-.29.69-.43,1.12-.39,0,0-.04-.04-.04-.04-.26.47-.7.44-1.14.38l.05.05Z"/>
  <path class="cls-1" d="M359.11,348.15s.14.04.14.06c0,.06-.03.17-.06.17-.17.01-.2-.07-.08-.23Z"/>
  <polygon class="cls-1" points="372.13 336.01 371.94 336.05 371.97 335.91 372.13 336.01"/>
  <path class="cls-1" d="M300.95,329.48c-.05.04-.1.11-.15.11-.18,0-.23-.1-.13-.24.03-.04.13-.05.19-.03.05.02.07.1.1.15Z"/>
  <path class="cls-1" d="M306.59,328.6c-.15-.02-.29-.04-.44-.05.02-.06.03-.11.05-.17.12.09.23.18.35.27,0,0,.04-.05.04-.05Z"/>
  <polygon class="cls-1" points="238.81 327.35 238.97 327.43 238.81 327.49 238.81 327.35"/>
  <path class="cls-1" d="M344.88,340.8c-.12.05-.23.09-.35.14.05-.04.1-.11.15-.12.07-.01.15.02.23.03,0,0-.04-.04-.04-.04Z"/>
  <path class="cls-1" d="M214.75,357.89c-.07.56-.5.57-.92.58,0,0-.12-.14-.12-.14.23-.47.63-.5,1.07-.41,0,0-.04-.04-.04-.04Z"/>
  <path class="cls-1" d="M174.66,360.59c-.14.02-.28.06-.42.04-.12-.01.18-.07.45-.05,0,0-.03,0-.03,0Z"/>
  <path class="cls-1" d="M194.68,361.71c-.07.02-.14.06-.21.05-.02,0-.07-.15-.05-.16.06-.04.13-.05.2-.07.02.06.04.12.05.18Z"/>
  <path class="cls-1" d="M239,341.78c.1-.67.59-.52,1.02-.49,0,0-.05-.05-.05-.05-.21.42-.55.59-1.01.5l.04.04Z"/>
  <path class="cls-1" d="M218.18,357.81c.07.03.14.06.21.09.03-.18-.05-.21-.26-.06,0,0,.05-.02.05-.02Z"/>
  <path class="cls-1" d="M237.97,342.3c.26-.35.63-.46,1.03-.52,0,0-.04-.04-.04-.04,0,.18,0,.36,0,.55,0,0,.07-.04.07-.04-.36,0-.71,0-1.07,0l.03.05Z"/>
  <path class="cls-1" d="M378.72,367.8c.02.15.05.3.07.45-.02-.16-.05-.33-.07-.5,0,0,0,.04,0,.04Z"/>
  <path class="cls-1" d="M368.91,370.24c-.09.17-.24.22-.41.13-.06-.03-.1-.12-.15-.18.14-.05.28-.11.42-.14.03,0,.09.12.14.18Z"/>
  <polygon class="cls-1" points="175.38 371.69 175.52 371.76 175.36 371.82 175.38 371.69"/>
  <path class="cls-1" d="M240.05,308.59c.06.05.11.1.16.15-.12.05-.24.12-.37.15-.04,0-.1-.1-.14-.15.12-.05.24-.1.36-.15Z"/>
  <path class="cls-1" d="M142.34,373.64s.02.01.04.02c0,0-.04-.02-.04-.02Z"/>
  <path class="cls-1" d="M176.62,374.18c.02.05.04.1.05.15-.06.02-.13.05-.19.04-.02,0-.04-.09-.05-.14l.19-.05Z"/>
  <path class="cls-1" d="M173.79,375.07c.07.09.15.18.22.27-.13.05-.25.11-.38.13-.03,0-.12-.15-.11-.17.08-.09.18-.16.27-.23Z"/>
  <polygon class="cls-1" points="176.07 376.3 175.89 376.35 175.92 376.2 176.07 376.3"/>
  <path class="cls-1" d="M180.94,363.65c-.06.05-.11.1-.17.15-.03-.07-.11-.14-.09-.2.01-.06.1-.1.16-.15l.1.21Z"/>
  <path class="cls-1" d="M170.48,309.47c.3.07.47.25.42.57l.05-.05c-.33.04-.5-.13-.56-.44l.09-.09Z"/>
  <polygon class="cls-1" points="238.51 310 238.55 309.93 238.49 310.01 238.51 310"/>
  <path class="cls-1" d="M170.91,310.04c.21-.02.3.04.25.2,0,0-.14,0-.16-.03-.04-.06-.03-.14-.05-.22,0,0-.05.05-.05.05Z"/>
  <polygon class="cls-1" points="238.49 310.01 238.42 310.07 238.51 310 238.49 310.01"/>
  <path class="cls-1" d="M263.66,50s-.04-.04-.04-.04.04.04.04.04Z"/>
  <path class="cls-1" d="M168.39,311.53c.18.18.36.36.54.54,0,0,.03-.05.03-.05-.19,0-.39,0-.58,0,0,0,.06.04.07.04,0-.19,0-.38,0-.57l-.06.03Z"/>
  <path class="cls-1" d="M261.64,53.46c-.01.05-.03.1-.04.16-.13-.08-.1-.12.09-.11,0,0-.05-.05-.05-.05Z"/>
  <path class="cls-1" d="M261.19,55.5c-.12-.09-.23-.17-.35-.26.12-.08.23-.16.35-.24,0,0-.05-.04-.05-.04,0,.19,0,.38,0,.58l.05-.04Z"/>
  <polygon class="cls-1" points="241.04 327.11 240.91 327.1 241.01 327.16 241.04 327.11"/>
  <path class="cls-1" d="M300.45,327.15s-.09.03-.14.04c.11.14.14.13.1-.04,0,0,.04,0,.04,0Z"/>
  <polygon class="cls-1" points="303.94 327.68 304.08 327.74 303.99 327.63 303.94 327.68"/>
  <polygon class="cls-1" points="236.12 330.6 235.96 330.62 236.06 330.59 236.12 330.6"/>
  <polygon class="cls-1" points="377.61 335.67 377.49 335.65 377.58 335.62 377.61 335.67"/>
  <polygon class="cls-1" points="223.08 112.35 223.02 112.18 223.17 112.19 223.08 112.35"/>
  <polygon class="cls-1" points="262.72 111.87 262.71 111.95 262.71 111.82 262.72 111.87"/>
  <path class="cls-1" d="M341.67,346.39l.12-.04s-.07,0-.07.01-.05.03-.05.03Z"/>
  <path class="cls-1" d="M193.02,347.71c-.02.11-.03.22-.05.33-.01-.04-.05-.1-.04-.12.03-.06.09-.1.14-.16,0,0-.05-.05-.05-.05Z"/>
  <path class="cls-1" d="M102.4,234.96c0-.19.01-.38.02-.56,0,0-.03-.01-.03-.01,0,.2,0,.39,0,.59,0,0,.03-.01.03-.01Z"/>
  <path class="cls-1" d="M215.28,357.33c.04-.2.09-.41.14-.61,0,0,.03.05.03.05-.44.15-.46.19-.21.5l.05.05Z"/>
  <polygon class="cls-1" points="101.44 250.02 101.5 249.92 101.4 249.97 101.44 250.02"/>
  <path class="cls-1" d="M215.23,357.28c-.03.3-.15.54-.47.61,0,0,.04.04.04.04.16-.2.32-.4.48-.59,0,0-.05-.06-.05-.06Z"/>
  <path class="cls-1" d="M100.87,250.6c.19-.19.38-.39.57-.59,0,0-.04-.05-.04-.05-.19.2-.38.39-.56.59,0,0,.04.04.04.04Z"/>
  <polygon class="cls-1" points="272.26 257.21 272.31 257.07 272.27 257.16 272.26 257.21"/>
  <polygon class="cls-1" points="51.03 273.8 51.08 273.69 51.08 273.77 51.03 273.8"/>
  <path class="cls-1" d="M49.54,274.85c0-.33.2-.51.47-.63,0,0-.05-.05-.05-.05-.16.21-.31.42-.47.63,0,0,.05.05.05.05Z"/>
  <path class="cls-1" d="M47.99,275.77c0-.31.21-.46.47-.56,0,0-.05-.05-.05-.06.04.34-.11.53-.45.58,0,0,.04.04.04.04Z"/>
  <path class="cls-1" d="M47.48,276.28c-.02-.36.19-.49.51-.51,0,0-.04-.04-.04-.04-.02.32-.21.47-.51.51,0,0,.04.04.04.04Z"/>
  <path class="cls-1" d="M27.23,276.68c.09-.04.18-.07.26-.11-.04.04-.07.1-.11.1-.06,0-.13-.02-.19-.04,0,0,.04.04.04.04Z"/>
  <path class="cls-1" d="M27.3,277.27c-.04-.13-.09-.25-.11-.38-.01-.06.03-.14.04-.21,0,0-.04-.04-.04-.05.02.22.05.45.07.67,0,0,.04-.03.04-.03Z"/>
  <path class="cls-1" d="M47.94,279.25c-.03-.19.13-.41.23-.33.36.28.06.33-.18.38,0,0-.05-.05-.05-.05Z"/>
  <polygon class="cls-1" points="376.5 367.35 376.49 367.49 376.46 367.4 376.5 367.35"/>
  <polygon class="cls-1" points="143.25 371.05 143.27 370.94 143.2 371.01 143.25 371.05"/>
  <polygon class="cls-1" points="51.5 301.42 51.56 301.5 51.48 301.39 51.5 301.42"/>
  <polygon class="cls-1" points="243.93 301.9 244.03 301.96 244 301.93 243.93 301.9"/>
  <path class="cls-1" d="M48.95,303.42c-.05.08-.1.15-.15.23,0-.04,0-.11.03-.12.05-.03.11-.04.17-.06,0,0-.05-.05-.05-.05Z"/>
  <polygon class="cls-1" points="243.23 304.31 243.19 304.16 243.32 304.18 243.23 304.31"/>
  <path class="cls-1" d="M271.25,6.1c.17.01.34.02.51.03,0,0,.01-.03.01-.03-.19,0-.38,0-.56-.01l.04.02Z"/>
  <path class="cls-1" d="M271.25,6.64c0-.18,0-.36,0-.54,0,0-.04-.02-.04-.02,0,.19,0,.38,0,.57,0,0,.04-.01.04-.01Z"/>
  <polygon class="cls-1" points="350.31 376.06 350.46 376.13 350.36 376.01 350.31 376.06"/>
  <path class="cls-1" d="M263.54,12.42c-.05.05-.11.13-.16.12-.05,0-.09-.09-.14-.14.05-.05.11-.13.16-.13.05,0,.09.09.14.14Z"/>
  <path class="cls-1" d="M170.39,309.56c-.3,0-.47-.17-.56-.45.08-.08.16-.16.24-.24.26.12.42.3.41.6,0,0-.09.09-.09.09Z"/>
  <path class="cls-1" d="M232.61,145.57c-.32-1.63-.4-1.66-.06-2.4.25-.54.33-1.1.48-1.66.01-.05.17-.12.21-.09.12.07.31.2.29.27-.15.65-.38,1.28-.49,1.93-.1.64-.06,1.3-.44,1.96Z"/>
  <path class="cls-1" d="M237.94,123.53c.17-.18.35-.35.52-.53.71.18.87.29.74.69-.16.48-.2.96-.19,1.45,0,.15-.08.33-.18.44-.1.09-.28.14-.42.13-.19,0-.32-.18-.25-.36.25-.66.31-1.28-.22-1.83Z"/>
  <path class="cls-1" d="M240.55,137.25c-.11.39-.22.77-.34,1.16-.02.05-.13.11-.2.11-.23,0-.28-.13-.15-.33.2-.33.18-.83.71-.89l-.02-.05Z"/>
  <path class="cls-1" d="M242.3,124.29c.07.33.14.65.2.98.01.07-.03.2-.08.23-.2.09-.33,0-.3-.2.05-.32.13-.64.19-.97,0,0,0-.04,0-.04Z"/>
  <path class="cls-1" d="M243.49,126.04c-.08.11-.16.23-.25.34-.06-.13-.17-.26-.16-.39,0-.12.15-.22.23-.33.06.13.12.25.18.38Z"/>
  <path class="cls-1" d="M236.25,144.27c.04.06.11.13.1.19-.02.22-.13.27-.26.14-.04-.04-.03-.15,0-.22.02-.05.1-.08.16-.12Z"/>
  <polygon class="cls-1" points="238.21 140.91 238.15 140.72 238.31 140.74 238.21 140.91"/>
  <path class="cls-1" d="M240.57,137.3c.01-.06.03-.12.04-.19-.02.04-.04.09-.06.13,0,0,.02.05.02.05Z"/>
  <polygon class="cls-1" points="242.41 131.66 242.41 131.57 242.45 131.7 242.41 131.66"/>
  <path class="cls-1" d="M231.46,157.77s-.04.05-.04.05c0,0,.04-.05.04-.05Z"/>
  <polygon class="cls-1" points="254.14 138.26 254.06 138.25 254.19 138.21 254.14 138.26"/>
  <path class="cls-1" d="M250.82,146.12c-.04-.05-.12-.11-.12-.16,0-.05.09-.09.14-.14.04.05.12.11.12.16s-.09.09-.14.14Z"/>
  <polygon class="cls-1" points="228.89 184.63 228.82 184.62 228.92 184.57 228.89 184.63"/>
  <path class="cls-1" d="M225.37,194.57c-.31-.03-.47-.2-.49-.5,0,0-.04.04-.04.04.29.04.47.2.49.51l.05-.05Z"/>
  <polygon class="cls-1" points="225.33 194.61 225.42 194.65 225.37 194.57 225.33 194.61"/>
  <polygon class="cls-1" points="203.19 323.86 203.35 323.82 203.32 323.95 203.19 323.86"/>
  <path class="cls-1" d="M241.58,342.21c-.14-.01-.27-.03-.41-.04.18-.24.24.08.37.08,0,0,.04-.04.04-.04Z"/>
  <path class="cls-1" d="M82.37,203.9c.62-.62,1.18-1.2,1.44-2,.07-.2.21-.25.39-.15.07.04.15.11.16.17.15.83-.05,1.61-.43,2.34-.05.1-.27.16-.42.16-.15,0-.32-.07-.46-.14-.2-.1-.4-.22-.68-.38Z"/>
  <path class="cls-1" d="M84.08,214.08c.27-.14.54-.28.82-.41.04-.02.16.05.17.09.03.14.04.29.03.44,0,.05-.12.14-.16.13-.3-.08-.59-.17-.89-.27,0,0,.03.02.03.02Z"/>
  <path class="cls-1" d="M88.74,214.37c-.06.06-.1.12-.15.17-.08-.08-.22-.18-.21-.25.01-.11.14-.2.21-.3.05.06.12.1.15.17.03.06,0,.15,0,.21Z"/>
  <path class="cls-1" d="M91.83,211.2c0,.36,0,.72,0,1.08-.49-.63-.49-.64,0-1.08Z"/>
  <path class="cls-1" d="M87.41,158.63c-.12.42-.17.94-.41,1.36-.45.81-.67,1.68-.9,2.56-.01.06-.11.12-.17.13-.17.03-.31-.07-.28-.26.19-1.14.38-2.29.61-3.42.06-.31.26-.6.45-.87.07-.11.3-.18.42-.15.11.02.2.21.27.33.03.06,0,.16,0,.31Z"/>
  <path class="cls-1" d="M88.63,163.99c-.06-.02-.13-.02-.16-.05-.05-.06-.1-.14-.09-.21.04-.67.36-1.23.7-1.78.05-.08.26-.06.4-.06.03,0,.11.14.09.19-.18.53-.37,1.07-.59,1.59-.06.13-.23.22-.34.33Z"/>
  <path class="cls-1" d="M91.83,159.35c-.19,0-.37,0-.56,0-.25-.98.04-1.91.31-2.84.03-.1.27-.14.42-.19.02,0,.12.14.11.17-.31.59-.47,1.18-.29,1.86.08.31,0,.66,0,.98Z"/>
  <path class="cls-1" d="M92.37,163.94c-.2.34-.38.7-.6,1.03-.12.17-.31.15-.36,0-.05-.13-.08-.38-.02-.43.33-.21.68-.37,1.03-.55l-.05-.05Z"/>
  <path class="cls-1" d="M92.42,164c-.04-.4-.15-.8.16-1.17.19-.23.5-.33.6-.15.13.23.14.49-.03.67-.22.23-.52.4-.78.6,0,0,.05.06.05.06Z"/>
  <path class="cls-1" d="M87.81,166.44c-.05.54-.06,1.1-.49,1.52,0,0,.05.05.05.05,0-.25-.04-.5-.02-.74.02-.34.15-.64.51-.78l-.04-.04Z"/>
  <path class="cls-1" d="M87.85,166.49l.11-.38c0,.05,0,.11-.02.15-.03.07-.09.12-.13.18,0,0,.04.04.04.04Z"/>
  <path class="cls-1" d="M92.91,154.88l-.1-.05s.13.08.13.08c0,0-.03-.04-.03-.04Z"/>
  <path class="cls-1" d="M90.74,160.23s.04.05.04.05c0,0-.04-.05-.04-.05Z"/>
  <polygon class="cls-1" points="94.62 162.49 94.66 162.62 94.54 162.6 94.62 162.49"/>
  <polygon class="cls-1" points="79.96 164.52 80.02 164.69 79.87 164.67 79.96 164.52"/>
  <path class="cls-1" d="M51.58,292.68c-.46-.02-.77-.25-.93-.67-.03-.07-.02-.17,0-.24.02-.06.1-.14.14-.13.32.07.64.13.93.25.1.04.17.29.14.43-.02.13-.18.24-.28.36Z"/>
  <path class="cls-1" d="M56.05,286.84c-.17.17-.35.35-.52.52-.16-.02-.33-.02-.48-.07-.29-.09-.3-.28-.18-.53.07-.14.09-.3.13-.46.35,0,.7,0,1.06,0,0,.18,0,.36,0,.54Z"/>
  <path class="cls-1" d="M55.05,291.22c-.05.06-.09.16-.15.17-.2.02-.27-.1-.17-.29.03-.05.15-.08.21-.06.05.02.08.11.11.18Z"/>
  <polygon class="cls-1" points="55 288.31 54.93 288.42 54.96 288.33 55 288.31"/>
  <path class="cls-1" d="M49.46,289.39c0-.19,0-.39,0-.58.04.13.09.26.11.39,0,.06-.07.13-.11.19Z"/>
  <polygon class="cls-1" points="102.67 265.11 102.72 265.33 102.55 265.29 102.67 265.11"/>
  <path class="cls-1" d="M106.89,262.13c.19,0,.38,0,.58,0-.19.21-.38.15-.58,0Z"/>
  <path class="cls-1" d="M101.3,266.45c-.05.05-.1.09-.16.14-.04-.05-.12-.11-.12-.16,0-.05.09-.09.15-.14.04.05.09.11.13.16Z"/>
</svg>